<?xml version="1.0" encoding="utf-8"?>
<!-- Generator: Adobe Illustrator 28.1.0, SVG Export Plug-In . SVG Version: 6.00 Build 0)  -->
<svg version="1.1" xmlns="http://www.w3.org/2000/svg" xmlns:xlink="http://www.w3.org/1999/xlink" x="0px" y="0px"
	 viewBox="0 0 100 100" style="enable-background:new 0 0 100 100;" xml:space="preserve">
<style type="text/css">
	.st0{fill:none;stroke:#E88433;stroke-width:2.25;stroke-linecap:round;stroke-linejoin:round;stroke-miterlimit:10;}
	.st1{fill:none;stroke:#3DBBA4;stroke-width:2.205;stroke-linecap:round;stroke-linejoin:round;stroke-miterlimit:10;}
	.st2{fill:none;stroke:#AB43A1;stroke-width:2.025;stroke-linejoin:round;stroke-miterlimit:10;}
	.st3{fill:none;stroke:#B67BB0;stroke-width:2.25;stroke-linecap:round;stroke-linejoin:round;stroke-miterlimit:10;}
	.st4{fill:none;stroke:#3DBBA4;stroke-width:2.25;stroke-linejoin:round;stroke-miterlimit:10;}
	.st5{fill:none;stroke:#3DBBA4;stroke-width:2.25;stroke-linecap:round;stroke-linejoin:round;stroke-miterlimit:10;}
	.st6{fill:none;stroke:#4A596D;stroke-width:2.25;stroke-linecap:round;stroke-linejoin:round;stroke-miterlimit:10;}
	.st7{fill:none;stroke:#4A596D;stroke-width:2.25;stroke-linejoin:round;stroke-miterlimit:10;}
	.st8{fill:none;stroke:#A68446;stroke-width:2.25;stroke-linejoin:round;stroke-miterlimit:10;}
	.st9{fill:none;stroke:#E88433;stroke-width:2.25;stroke-linejoin:round;stroke-miterlimit:10;}
	.st10{fill:none;stroke:#A68446;stroke-width:2.25;stroke-linecap:round;stroke-linejoin:round;stroke-miterlimit:10;}
	.st11{fill:none;stroke:#A68446;stroke-width:2.1422;stroke-linecap:round;stroke-linejoin:round;stroke-miterlimit:10;}
	.st12{fill:none;stroke:#A68446;stroke-width:2.7;stroke-linecap:round;stroke-linejoin:round;}
	.st13{fill:none;stroke:#A68446;stroke-width:2.7;stroke-linecap:round;stroke-linejoin:round;stroke-dasharray:0,4.6616,0,0,0,0;}
	.st14{fill:none;stroke:#A68446;stroke-width:3;stroke-linecap:round;stroke-linejoin:round;}
	.st15{fill:none;stroke:#A68446;stroke-width:3;stroke-linecap:round;stroke-linejoin:round;stroke-dasharray:0,5.1796,0,0,0,0;}
	.st16{fill:none;stroke:#3DBBA4;stroke-width:2.2259;stroke-linecap:round;stroke-linejoin:round;stroke-miterlimit:10;}
	.st17{fill:none;stroke:#A68446;stroke-width:2.5;stroke-linejoin:round;stroke-miterlimit:10;}
	.st18{fill:none;stroke:#3DBBA4;stroke-width:2.7;stroke-linecap:round;stroke-linejoin:round;}
	.st19{fill:none;stroke:#3DBBA4;stroke-width:2.7;stroke-linecap:round;stroke-linejoin:round;stroke-dasharray:0,5.5356,0,0,0,0;}
	.st20{fill:#3DBBA4;}
	.st21{fill-rule:evenodd;clip-rule:evenodd;fill:none;stroke:#AB43A1;stroke-width:2.25;stroke-miterlimit:10;}
	
		.st22{fill-rule:evenodd;clip-rule:evenodd;fill:none;stroke:#AB43A1;stroke-width:2.25;stroke-linejoin:round;stroke-miterlimit:10;}
</style>
<g id="Layer_1">
	<g>
		<g>
			<path class="st4" d="M53.7,30.5l13.2,18.4c2.9,4,7.8,11.9,8.1,19.2l0,0.1l0,0.1l0,0.1l0,0.1c0,2.3-0.4,4.3-1.4,6.1
				c-2.9,5.7-10.6,8.6-22.8,8.6h-1.3c-6.3,0-11.5-0.8-15.4-2.5c-3.5-1.5-6-3.6-7.4-6.4c-3-5.9-0.9-14.9,5.6-24l14.3-19.9H53.7z"/>
			<path class="st4" d="M46.7,30.5l-8.9-9.9c-0.8-0.8-0.8-2-0.1-2.9c0.5-0.6,1.3-1,2.2-1c0.3,0,0.6,0,0.9,0.1l7.3,2.2
				c0.9,0.3,1.8,0.4,2.7,0.4c0.5,0,1,0,1.6-0.1l5.7-0.9c0.2,0,0.3,0,0.5,0c0.9,0,1.8,0.4,2.3,1.1c0.6,0.9,0.6,1.9-0.1,2.7l-7,8.3
				H46.7z"/>
		</g>
		<g>
			<path class="st4" d="M25.4,68.3c-0.6,0-1.3,0-2,0h-0.9c-4.3,0-7.8-0.6-10.5-1.7c-2.4-1-4.1-2.5-5.1-4.4C5,58.2,6.4,52.1,10.9,46
				l9.8-13.6h4.8l9,12.5c0.3,0.4,0.6,0.9,1,1.4"/>
			<path class="st4" d="M20.6,32.4l-6.1-6.7c-0.5-0.6-0.5-1.4-0.1-1.9c0.4-0.4,0.9-0.7,1.5-0.7c0.2,0,0.4,0,0.6,0.1l5,1.5
				c0.6,0.2,1.2,0.3,1.8,0.3c0.3,0,0.7,0,1.1-0.1l3.9-0.6c0.1,0,0.2,0,0.3,0c0.6,0,1.2,0.3,1.6,0.8c0.4,0.6,0.4,1.3-0.1,1.8
				l-4.8,5.6H20.6z"/>
		</g>
		<g>
			<path class="st4" d="M64.8,46l9.8-13.6h4.8l9,12.5c2,2.8,5.3,8.1,5.5,13.1l0,0.1l0,0.1l0,0.1l0,0c0,1.5-0.3,3-0.9,4.2
				c-2,3.9-7.2,5.9-15.5,5.9h-0.9c-0.5,0-0.5,0-1.1,0"/>
			<path class="st4" d="M74.6,32.4l-6.1-6.7c-0.5-0.6-0.5-1.4-0.1-1.9c0.4-0.4,0.9-0.7,1.5-0.7c0.2,0,0.4,0,0.6,0.1l5,1.5
				c0.6,0.2,1.2,0.3,1.8,0.3c0.3,0,0.7,0,1.1-0.1l3.9-0.6c0.1,0,0.2,0,0.3,0c0.6,0,1.2,0.3,1.6,0.8c0.4,0.6,0.4,1.3-0.1,1.8
				l-4.8,5.6H74.6z"/>
		</g>
		<g>
			<path class="st5" d="M53.9,52.4c-1-0.7-2.3-1.2-3.7-1.2c-2.6,0-4.7,1.7-4.7,3.7c0,1.2,0.7,2.3,1.9,3l4.7,2.4
				c1.2,0.7,2.1,1.8,2.1,3.1c0,2.1-2.1,3.7-4.7,3.7c-1.7,0-3.3-0.7-4.2-1.7"/>
			<line class="st5" x1="49.7" y1="67.2" x2="49.7" y2="69.7"/>
			<line class="st5" x1="49.7" y1="48.6" x2="49.7" y2="51.1"/>
		</g>
		<g>
			<path class="st5" d="M80.3,47.1c-0.6-0.5-1.5-0.8-2.4-0.8c-1.7,0-3.1,1.1-3.1,2.5c0,0.8,0.5,1.5,1.2,2l3.1,1.6
				c0.8,0.4,1.4,1.2,1.4,2.1c0,1.4-1.4,2.5-3.1,2.5c-1.1,0-2.2-0.5-2.8-1.2"/>
			<line class="st5" x1="77.6" y1="56.9" x2="77.6" y2="58.6"/>
			<line class="st5" x1="77.6" y1="44.6" x2="77.6" y2="46.3"/>
		</g>
		<g>
			<path class="st5" d="M25.6,47.1c-0.6-0.5-1.5-0.8-2.4-0.8c-1.7,0-3.1,1.1-3.1,2.5c0,0.8,0.5,1.5,1.2,2l3.1,1.6
				c0.8,0.4,1.4,1.2,1.4,2.1c0,1.4-1.4,2.5-3.1,2.5c-1.1,0-2.2-0.5-2.8-1.2"/>
			<line class="st5" x1="22.9" y1="56.9" x2="22.9" y2="58.6"/>
			<line class="st5" x1="22.9" y1="44.6" x2="22.9" y2="46.3"/>
		</g>
	</g>
</g>
<g id="Layer_2">
</g>
<g id="Layer_3">
</g>
</svg>
