<?xml version="1.0" encoding="utf-8"?>
<!-- Generator: Adobe Illustrator 28.1.0, SVG Export Plug-In . SVG Version: 6.00 Build 0)  -->
<svg version="1.1" xmlns="http://www.w3.org/2000/svg" xmlns:xlink="http://www.w3.org/1999/xlink" x="0px" y="0px"
	 viewBox="0 0 100 100" style="enable-background:new 0 0 100 100;" xml:space="preserve">
<style type="text/css">
	.st0{fill:none;stroke:#E88433;stroke-width:2.25;stroke-linecap:round;stroke-linejoin:round;stroke-miterlimit:10;}
	.st1{fill:none;stroke:#3DBBA4;stroke-width:2.205;stroke-linecap:round;stroke-linejoin:round;stroke-miterlimit:10;}
	.st2{fill:none;stroke:#AB43A1;stroke-width:2.025;stroke-linejoin:round;stroke-miterlimit:10;}
	.st3{fill:none;stroke:#B67BB0;stroke-width:2.25;stroke-linecap:round;stroke-linejoin:round;stroke-miterlimit:10;}
	.st4{fill:none;stroke:#3DBBA4;stroke-width:2.25;stroke-linejoin:round;stroke-miterlimit:10;}
	.st5{fill:none;stroke:#3DBBA4;stroke-width:2.25;stroke-linecap:round;stroke-linejoin:round;stroke-miterlimit:10;}
	.st6{fill:none;stroke:#4A596D;stroke-width:2.25;stroke-linecap:round;stroke-linejoin:round;stroke-miterlimit:10;}
	.st7{fill:none;stroke:#4A596D;stroke-width:2.25;stroke-linejoin:round;stroke-miterlimit:10;}
	.st8{fill:none;stroke:#A68446;stroke-width:2.25;stroke-linejoin:round;stroke-miterlimit:10;}
	.st9{fill:none;stroke:#E88433;stroke-width:2.25;stroke-linejoin:round;stroke-miterlimit:10;}
	.st10{fill:none;stroke:#A68446;stroke-width:2.25;stroke-linecap:round;stroke-linejoin:round;stroke-miterlimit:10;}
	.st11{fill:none;stroke:#A68446;stroke-width:2.1422;stroke-linecap:round;stroke-linejoin:round;stroke-miterlimit:10;}
	.st12{fill:none;stroke:#A68446;stroke-width:2.7;stroke-linecap:round;stroke-linejoin:round;}
	.st13{fill:none;stroke:#A68446;stroke-width:2.7;stroke-linecap:round;stroke-linejoin:round;stroke-dasharray:0,4.6616,0,0,0,0;}
	.st14{fill:none;stroke:#A68446;stroke-width:3;stroke-linecap:round;stroke-linejoin:round;}
	.st15{fill:none;stroke:#A68446;stroke-width:3;stroke-linecap:round;stroke-linejoin:round;stroke-dasharray:0,5.1796,0,0,0,0;}
	.st16{fill:none;stroke:#3DBBA4;stroke-width:2.2259;stroke-linecap:round;stroke-linejoin:round;stroke-miterlimit:10;}
	.st17{fill:none;stroke:#A68446;stroke-width:2.5;stroke-linejoin:round;stroke-miterlimit:10;}
	.st18{fill:none;stroke:#3DBBA4;stroke-width:2.7;stroke-linecap:round;stroke-linejoin:round;}
	.st19{fill:none;stroke:#3DBBA4;stroke-width:2.7;stroke-linecap:round;stroke-linejoin:round;stroke-dasharray:0,5.5356,0,0,0,0;}
	.st20{fill:#3DBBA4;}
	.st21{fill-rule:evenodd;clip-rule:evenodd;fill:none;stroke:#AB43A1;stroke-width:2.25;stroke-miterlimit:10;}
	
		.st22{fill-rule:evenodd;clip-rule:evenodd;fill:none;stroke:#AB43A1;stroke-width:2.25;stroke-linejoin:round;stroke-miterlimit:10;}
</style>
<g id="Layer_1">
	<rect x="60.9" y="6.9" class="st0" width="8.2" height="4.7"/>
	<path class="st0" d="M44.3,93.1l-1.1-5.4l-7.4-3.1l-4.6,3.1L24,80.5l3.1-4.6l-3.1-7.4l-5.4-1.1v-5.1h61.6v5l-5.4,1.1l-3.1,7.4
		l3.1,4.6l-7.2,7.2L63,84.6l-7.4,3.1l-1.1,5.4H44.3z M6.4,62.3V57h86.2v5.3H6.4z M75.4,57V29L87,24.1V57H75.4z M19.7,57V29l11.6-4.9
		V57H19.7z M11.9,57v-22h7.8v22H11.9z M54.7,57V37.7h20.7V57H54.7z M31.4,57V18.5h23.3V57H31.4z M59.9,37.7l1.8-26.1h6.6l1.8,26.1
		H59.9z"/>
	<rect x="38" y="25.1" class="st0" width="10.1" height="10.1"/>
	<path class="st0" d="M49.5,78.1c-8.1,0-15.1-6.4-15.7-14.5l-0.1-1.3h31.7l-0.1,1.3C64.5,71.7,57.6,78.1,49.5,78.1z"/>
	<path class="st0" d="M38.4,57V44.8c0-1.1,0.9-2,2-2h5.2c1.1,0,2,0.9,2,2V57H38.4z"/>
	<rect x="59.5" y="42.5" class="st0" width="11.1" height="4.6"/>
	<rect x="34.8" y="13.8" class="st0" width="16.4" height="4.7"/>
	<line class="st9" x1="43" y1="25" x2="43" y2="35.2"/>
	<line class="st9" x1="37.9" y1="30.1" x2="48.2" y2="30.1"/>
</g>
<g id="Layer_2">
</g>
<g id="Layer_3">
</g>
</svg>
