<?xml version="1.0" encoding="utf-8"?>
<!-- Generator: Adobe Illustrator 28.1.0, SVG Export Plug-In . SVG Version: 6.00 Build 0)  -->
<svg version="1.1" xmlns="http://www.w3.org/2000/svg" xmlns:xlink="http://www.w3.org/1999/xlink" x="0px" y="0px"
	 viewBox="0 0 100 100" style="enable-background:new 0 0 100 100;" xml:space="preserve">
<style type="text/css">
	.st0{fill:none;stroke:#E88433;stroke-width:2.25;stroke-linecap:round;stroke-linejoin:round;stroke-miterlimit:10;}
	.st1{fill:none;stroke:#3DBBA4;stroke-width:2.205;stroke-linecap:round;stroke-linejoin:round;stroke-miterlimit:10;}
	.st2{fill:none;stroke:#AB43A1;stroke-width:2.025;stroke-linejoin:round;stroke-miterlimit:10;}
	.st3{fill:none;stroke:#B67BB0;stroke-width:2.25;stroke-linecap:round;stroke-linejoin:round;stroke-miterlimit:10;}
	.st4{fill:none;stroke:#3DBBA4;stroke-width:2.25;stroke-linejoin:round;stroke-miterlimit:10;}
	.st5{fill:none;stroke:#3DBBA4;stroke-width:2.25;stroke-linecap:round;stroke-linejoin:round;stroke-miterlimit:10;}
	.st6{fill:none;stroke:#4A596D;stroke-width:2.25;stroke-linecap:round;stroke-linejoin:round;stroke-miterlimit:10;}
	.st7{fill:none;stroke:#4A596D;stroke-width:2.25;stroke-linejoin:round;stroke-miterlimit:10;}
	.st8{fill:none;stroke:#A68446;stroke-width:2.25;stroke-linejoin:round;stroke-miterlimit:10;}
	.st9{fill:none;stroke:#E88433;stroke-width:2.25;stroke-linejoin:round;stroke-miterlimit:10;}
	.st10{fill:none;stroke:#A68446;stroke-width:2.25;stroke-linecap:round;stroke-linejoin:round;stroke-miterlimit:10;}
	.st11{fill:none;stroke:#A68446;stroke-width:2.1422;stroke-linecap:round;stroke-linejoin:round;stroke-miterlimit:10;}
	.st12{fill:none;stroke:#A68446;stroke-width:2.7;stroke-linecap:round;stroke-linejoin:round;}
	.st13{fill:none;stroke:#A68446;stroke-width:2.7;stroke-linecap:round;stroke-linejoin:round;stroke-dasharray:0,4.6616,0,0,0,0;}
	.st14{fill:none;stroke:#A68446;stroke-width:3;stroke-linecap:round;stroke-linejoin:round;}
	.st15{fill:none;stroke:#A68446;stroke-width:3;stroke-linecap:round;stroke-linejoin:round;stroke-dasharray:0,5.1796,0,0,0,0;}
	.st16{fill:none;stroke:#3DBBA4;stroke-width:2.2259;stroke-linecap:round;stroke-linejoin:round;stroke-miterlimit:10;}
	.st17{fill:none;stroke:#A68446;stroke-width:2.5;stroke-linejoin:round;stroke-miterlimit:10;}
	.st18{fill:none;stroke:#3DBBA4;stroke-width:2.7;stroke-linecap:round;stroke-linejoin:round;}
	.st19{fill:none;stroke:#3DBBA4;stroke-width:2.7;stroke-linecap:round;stroke-linejoin:round;stroke-dasharray:0,5.5356,0,0,0,0;}
	.st20{fill:#3DBBA4;}
	.st21{fill-rule:evenodd;clip-rule:evenodd;fill:none;stroke:#AB43A1;stroke-width:2.25;stroke-miterlimit:10;}
	
		.st22{fill-rule:evenodd;clip-rule:evenodd;fill:none;stroke:#AB43A1;stroke-width:2.25;stroke-linejoin:round;stroke-miterlimit:10;}
</style>
<g id="Layer_1">
	<circle class="st1" cx="60.5" cy="32.6" r="20.8"/>
	<g>
		<path class="st1" d="M64,26.9c-0.8-0.6-1.9-1-3.1-1c-2.1,0-3.9,1.4-3.9,3.1c0,1,0.6,1.9,1.6,2.5l3.9,2c1,0.6,1.7,1.5,1.7,2.6
			c0,1.7-1.7,3.1-3.9,3.1c-1.4,0-2.7-0.6-3.5-1.4"/>
		<line class="st1" x1="60.5" y1="39.2" x2="60.5" y2="41.3"/>
		<line class="st1" x1="60.5" y1="23.8" x2="60.5" y2="25.9"/>
	</g>
	<circle class="st1" cx="60.5" cy="32.6" r="14.1"/>
	<path class="st1" d="M23.7,55.1l0.5,0c1.1,0,3.4-0.1,6.4-0.1c2.4,0,4.7,0,6.9,0.1c5.3,0.1,11.2,2.7,15.9,7l10.1,0
		c2.5,0,4.5,2,4.5,4.5c0,0.8-0.2,1.5-0.6,2.2v0.1l19.3-9.3c0.6-0.3,1.2-0.4,1.9-0.4c0.8,0,1.6,0.2,2.3,0.7c1.3,0.8,2.1,2.2,2.1,3.7
		c0,1.6-0.9,3-2.3,3.9l-0.1,0.1c-4.8,3.4-29.4,20.2-39.8,20.8c-0.1,0-0.3,0-0.4,0c-6.7,0-21.7-8.5-26.5-11.3"/>
	<path class="st1" d="M43.9,71.1l19.6,0c2.5,0,4.5-2,4.5-4.5"/>
	<path class="st1" d="M16.8,78.6c-1.3,0-2.4-1.1-2.4-2.4c0-1.3,1.1-2.4,2.4-2.4c0.6,0,1.3,0.3,1.7,0.7c0.5,0.5,0.7,1.1,0.7,1.7
		C19.2,77.5,18.1,78.6,16.8,78.6z"/>
	<rect x="7" y="51.1" class="st16" width="16.5" height="31.5"/>
</g>
<g id="Layer_2">
</g>
<g id="Layer_3">
</g>
</svg>
