<?xml version="1.0" encoding="utf-8"?>
<!-- Generator: Adobe Illustrator 28.1.0, SVG Export Plug-In . SVG Version: 6.00 Build 0)  -->
<svg version="1.1" xmlns="http://www.w3.org/2000/svg" xmlns:xlink="http://www.w3.org/1999/xlink" x="0px" y="0px"
	 viewBox="0 0 100 100" style="enable-background:new 0 0 100 100;" xml:space="preserve">
<style type="text/css">
	.st0{fill:none;stroke:#E88433;stroke-width:2.25;stroke-linecap:round;stroke-linejoin:round;stroke-miterlimit:10;}
	.st1{fill:none;stroke:#3DBBA4;stroke-width:2.205;stroke-linecap:round;stroke-linejoin:round;stroke-miterlimit:10;}
	.st2{fill:none;stroke:#AB43A1;stroke-width:2.025;stroke-linejoin:round;stroke-miterlimit:10;}
	.st3{fill:none;stroke:#B67BB0;stroke-width:2.25;stroke-linecap:round;stroke-linejoin:round;stroke-miterlimit:10;}
	.st4{fill:none;stroke:#3DBBA4;stroke-width:2.25;stroke-linejoin:round;stroke-miterlimit:10;}
	.st5{fill:none;stroke:#3DBBA4;stroke-width:2.25;stroke-linecap:round;stroke-linejoin:round;stroke-miterlimit:10;}
	.st6{fill:none;stroke:#4A596D;stroke-width:2.25;stroke-linecap:round;stroke-linejoin:round;stroke-miterlimit:10;}
	.st7{fill:none;stroke:#4A596D;stroke-width:2.25;stroke-linejoin:round;stroke-miterlimit:10;}
	.st8{fill:none;stroke:#A68446;stroke-width:2.25;stroke-linejoin:round;stroke-miterlimit:10;}
	.st9{fill:none;stroke:#E88433;stroke-width:2.25;stroke-linejoin:round;stroke-miterlimit:10;}
	.st10{fill:none;stroke:#A68446;stroke-width:2.25;stroke-linecap:round;stroke-linejoin:round;stroke-miterlimit:10;}
	.st11{fill:none;stroke:#A68446;stroke-width:2.1422;stroke-linecap:round;stroke-linejoin:round;stroke-miterlimit:10;}
	.st12{fill:none;stroke:#A68446;stroke-width:2.7;stroke-linecap:round;stroke-linejoin:round;}
	.st13{fill:none;stroke:#A68446;stroke-width:2.7;stroke-linecap:round;stroke-linejoin:round;stroke-dasharray:0,4.6616,0,0,0,0;}
	.st14{fill:none;stroke:#A68446;stroke-width:3;stroke-linecap:round;stroke-linejoin:round;}
	.st15{fill:none;stroke:#A68446;stroke-width:3;stroke-linecap:round;stroke-linejoin:round;stroke-dasharray:0,5.1796,0,0,0,0;}
	.st16{fill:none;stroke:#3DBBA4;stroke-width:2.2259;stroke-linecap:round;stroke-linejoin:round;stroke-miterlimit:10;}
	.st17{fill:none;stroke:#A68446;stroke-width:2.5;stroke-linejoin:round;stroke-miterlimit:10;}
	.st18{fill:none;stroke:#3DBBA4;stroke-width:2.7;stroke-linecap:round;stroke-linejoin:round;}
	.st19{fill:none;stroke:#3DBBA4;stroke-width:2.7;stroke-linecap:round;stroke-linejoin:round;stroke-dasharray:0,5.5356,0,0,0,0;}
	.st20{fill:#3DBBA4;}
	.st21{fill-rule:evenodd;clip-rule:evenodd;fill:none;stroke:#AB43A1;stroke-width:2.25;stroke-miterlimit:10;}
	
		.st22{fill-rule:evenodd;clip-rule:evenodd;fill:none;stroke:#AB43A1;stroke-width:2.25;stroke-linejoin:round;stroke-miterlimit:10;}
</style>
<g id="Layer_1">
	<g>
		<path class="st10" d="M32.6,31.4L17.5,55c-0.4,0.7-1.1,1-1.9,1c-0.4,0-0.9-0.1-1.2-0.4l-6.8-4.4c-1-0.7-1.4-2.1-0.7-3.1l15.1-23.6
			c0.3-0.5,0.8-0.9,1.4-1c0.2,0,0.3-0.1,0.5-0.1c0.4,0,0.9,0.1,1.2,0.4l6.8,4.4C32.9,29,33.2,30.4,32.6,31.4 M77.6,57.6l0.3,0.2
			c1.9,1.2,2.4,3.7,1.2,5.6c-0.8,1.2-2,1.9-3.4,1.9c-0.8,0-1.5-0.2-2.2-0.6l-1.8-1.2c0.7,0.6,1.2,1.4,1.4,2.3c0.2,1.1,0,2.2-0.6,3.1
			c-0.8,1.1-2,1.8-3.4,1.8c-0.8,0-1.5-0.2-2.2-0.6L65,68.8c0.7,0.6,1.1,1.3,1.3,2.2c0.2,1.1,0,2.2-0.5,3.1c-0.8,1.2-2,1.9-3.4,1.9
			c-0.8,0-1.5-0.2-2.2-0.6l-1-0.6c0.7,0.6,1.2,1.4,1.4,2.3c0.2,1.1,0,2.2-0.6,3.1c-0.8,1.2-2,1.9-3.4,1.9c-0.8,0-1.5-0.2-2.2-0.6
			l-4.7-3.1 M81.4,54.5l-3.8,3.1 M69.2,30.8c-0.6-1.1-0.1-2.5,1-3.1l7.2-3.7c0.3-0.2,0.7-0.3,1-0.3c0.2,0,0.5,0,0.7,0.1
			c0.6,0.2,1.1,0.6,1.3,1.1l12.9,24.9c0.3,0.5,0.3,1.2,0.1,1.7c-0.2,0.6-0.6,1-1.1,1.3l-7.2,3.7c-0.3,0.2-0.7,0.3-1,0.3
			c-0.8,0-1.6-0.5-2-1.2L69.2,30.8z M31.9,32.5l15.5,5.8"/>
		<path class="st10" d="M77.6,57.6L64,48.8c-0.6-0.4-1.2-0.7-1.9-0.9c-2.7-0.8-4.5-3.1-5-6.4c-2.6,1.8-5.1,3.8-7.3,6l-0.1,0.1
			c-2.3,1.8-5.7,1.4-7.5-0.9c-0.5-0.6-0.8-1.3-1-2.1L41,44l10.3-9.2c1.3-1.2,3.1-1.9,4.9-1.9c0.1,0,8.8,0.2,8.8,0.2l0.3,0
			c0.8,0,1.5-0.1,2.3-0.4l2.2-0.9"/>
		<line class="st10" x1="23" y1="59.8" x2="18.2" y2="53.8"/>
		<path class="st10" d="M24.8,57c0.8-1.2,2-1.8,3.4-1.8c0.8,0,1.6,0.2,2.2,0.7c1.7,1.1,2.3,3.3,1.4,5.1l1.3-2
			c0.6-0.9,1.5-1.5,2.6-1.8c0.3-0.1,0.6-0.1,0.9-0.1c2.3,0,4.1,1.8,4.1,4.1c0,0.6-0.1,1.2-0.4,1.7l0.4-0.7c0.6-0.9,1.5-1.6,2.6-1.8
			c0.3-0.1,0.6-0.1,0.9-0.1c2.3,0,4.1,1.9,4.1,4.1c0,0.8-0.2,1.5-0.6,2.2l-2.1,3.3c0.8-0.9,1.9-1.4,3.1-1.4c0.8,0,1.5,0.2,2.2,0.6
			c1.9,1.2,2.5,3.7,1.3,5.6l-3.5,5.6c-0.5,0.8-1.7,1.9-3.4,1.9c-1.9,0-3.6-1.3-4-3.2c-0.2-0.9-0.1-1.8,0.3-2.6l-1.4,2.2
			c-0.6,0.9-1.5,1.6-2.6,1.8c-0.3,0.1-0.6,0.1-0.9,0.1c-1.9,0-3.6-1.3-4-3.2c-0.2-1,0-2.2,0.6-3.1l0.3-0.4c-0.8,0.9-1.9,1.5-3.1,1.5
			c-0.8,0-1.5-0.2-2.2-0.6c-1.9-1.2-2.4-3.7-1.2-5.6l0.7-1.1c-0.8,0.9-1.9,1.4-3.1,1.4c-0.8,0-1.5-0.2-2.2-0.6
			c-1.9-1.2-2.4-3.7-1.2-5.6L24.8,57z"/>
		<line class="st10" x1="31.9" y1="60.9" x2="27.5" y2="67.8"/>
		<line class="st10" x1="40.2" y1="62.9" x2="33.3" y2="73.7"/>
		<line class="st10" x1="45.4" y1="69.9" x2="41.3" y2="76.3"/>
		<line class="st10" x1="59.2" y1="74.8" x2="55.4" y2="72.3"/>
		<line class="st10" x1="65" y1="68.8" x2="59" y2="64.8"/>
		<line class="st10" x1="71.7" y1="63.5" x2="63.1" y2="58"/>
	</g>
</g>
<g id="Layer_2">
</g>
<g id="Layer_3">
</g>
</svg>
