<?xml version="1.0" encoding="utf-8"?>
<!-- Generator: Adobe Illustrator 28.1.0, SVG Export Plug-In . SVG Version: 6.00 Build 0)  -->
<svg version="1.1" xmlns="http://www.w3.org/2000/svg" xmlns:xlink="http://www.w3.org/1999/xlink" x="0px" y="0px"
	 viewBox="0 0 100 100" style="enable-background:new 0 0 100 100;" xml:space="preserve">
<style type="text/css">
	.st0{fill:none;stroke:#E88433;stroke-width:2.25;stroke-linecap:round;stroke-linejoin:round;stroke-miterlimit:10;}
	.st1{fill:none;stroke:#3DBBA4;stroke-width:2.205;stroke-linecap:round;stroke-linejoin:round;stroke-miterlimit:10;}
	.st2{fill:none;stroke:#AB43A1;stroke-width:2.025;stroke-linejoin:round;stroke-miterlimit:10;}
	.st3{fill:none;stroke:#B67BB0;stroke-width:2.25;stroke-linecap:round;stroke-linejoin:round;stroke-miterlimit:10;}
	.st4{fill:none;stroke:#3DBBA4;stroke-width:2.25;stroke-linejoin:round;stroke-miterlimit:10;}
	.st5{fill:none;stroke:#3DBBA4;stroke-width:2.25;stroke-linecap:round;stroke-linejoin:round;stroke-miterlimit:10;}
	.st6{fill:none;stroke:#4A596D;stroke-width:2.25;stroke-linecap:round;stroke-linejoin:round;stroke-miterlimit:10;}
	.st7{fill:none;stroke:#4A596D;stroke-width:2.25;stroke-linejoin:round;stroke-miterlimit:10;}
	.st8{fill:none;stroke:#A68446;stroke-width:2.25;stroke-linejoin:round;stroke-miterlimit:10;}
	.st9{fill:none;stroke:#E88433;stroke-width:2.25;stroke-linejoin:round;stroke-miterlimit:10;}
	.st10{fill:none;stroke:#A68446;stroke-width:2.25;stroke-linecap:round;stroke-linejoin:round;stroke-miterlimit:10;}
	.st11{fill:none;stroke:#A68446;stroke-width:2.1422;stroke-linecap:round;stroke-linejoin:round;stroke-miterlimit:10;}
	.st12{fill:none;stroke:#A68446;stroke-width:2.7;stroke-linecap:round;stroke-linejoin:round;}
	.st13{fill:none;stroke:#A68446;stroke-width:2.7;stroke-linecap:round;stroke-linejoin:round;stroke-dasharray:0,4.6616,0,0,0,0;}
	.st14{fill:none;stroke:#A68446;stroke-width:3;stroke-linecap:round;stroke-linejoin:round;}
	.st15{fill:none;stroke:#A68446;stroke-width:3;stroke-linecap:round;stroke-linejoin:round;stroke-dasharray:0,5.1796,0,0,0,0;}
	.st16{fill:none;stroke:#3DBBA4;stroke-width:2.2259;stroke-linecap:round;stroke-linejoin:round;stroke-miterlimit:10;}
	.st17{fill:none;stroke:#A68446;stroke-width:2.5;stroke-linejoin:round;stroke-miterlimit:10;}
	.st18{fill:none;stroke:#3DBBA4;stroke-width:2.7;stroke-linecap:round;stroke-linejoin:round;}
	.st19{fill:none;stroke:#3DBBA4;stroke-width:2.7;stroke-linecap:round;stroke-linejoin:round;stroke-dasharray:0,5.5356,0,0,0,0;}
	.st20{fill:#3DBBA4;}
	.st21{fill-rule:evenodd;clip-rule:evenodd;fill:none;stroke:#AB43A1;stroke-width:2.25;stroke-miterlimit:10;}
	
		.st22{fill-rule:evenodd;clip-rule:evenodd;fill:none;stroke:#AB43A1;stroke-width:2.25;stroke-linejoin:round;stroke-miterlimit:10;}
</style>
<g id="Layer_1">
	<g>
		<g>
			<circle class="st21" cx="49.9" cy="10.9" r="3.9"/>
			<rect x="31.3" y="78.6" class="st22" width="37.3" height="6.5"/>
			<rect x="27.7" y="85.2" class="st22" width="44.4" height="7.8"/>
			<rect x="42" y="41.8" class="st22" width="15.9" height="4.8"/>
			<path class="st21" d="M41.5,36.9c-1.4,0-2.5,1.1-2.5,2.5c0,1.4,1.1,2.5,2.5,2.5l16.9,0c1.4,0,2.5-1.1,2.5-2.5
				c0-1.4-1.1-2.5-2.5-2.5C58.4,36.9,41.5,36.9,41.5,36.9z"/>
			<g>
				<polyline class="st22" points="42.4,36.9 36.2,19.5 42.4,22.5 47.9,14.7 				"/>
				<path class="st22" d="M35.9,78.6c0,0,8.1-14.7,8.1-32"/>
				<polyline class="st22" points="57.5,36.9 63.6,19.5 57.5,22.5 51.9,14.7 				"/>
				<path class="st22" d="M63.9,78.6c0,0-8.1-14.7-8.1-32"/>
			</g>
		</g>
		<g>
			<circle class="st21" cx="23.3" cy="45.5" r="8.9"/>
			<polyline class="st22" points="31.3,81.3 9.3,81.3 9.3,87.9 27.7,87.9 			"/>
			<g>
				<path class="st21" d="M29.5,59.5c0,0-1,8.6,4,19.2"/>
				<path class="st21" d="M17,59.5c0,0,1.1,10.1-5.4,21.9"/>
			</g>
			<path class="st21" d="M16.9,54.5c-1.4,0-2.5,1.1-2.5,2.5c0,1.4,1.1,2.5,2.5,2.5l12.7,0c1.4,0,2.5-1.1,2.5-2.5
				c0-1.4-1.1-2.5-2.5-2.5C29.6,54.5,16.9,54.5,16.9,54.5z"/>
		</g>
		<g>
			<circle class="st21" cx="76.7" cy="45.5" r="8.9"/>
			<polyline class="st22" points="72.1,87.9 90.7,87.9 90.7,81.3 68.6,81.3 			"/>
			<g>
				<path class="st21" d="M83,59.5c0,0-1.1,10.1,5.4,21.9"/>
				<path class="st21" d="M70.5,59.5c0,0,1,8.6-4,19.2"/>
			</g>
			<path class="st21" d="M70.4,54.5c-1.4,0-2.5,1.1-2.5,2.5c0,1.4,1.1,2.5,2.5,2.5l12.7,0c1.4,0,2.5-1.1,2.5-2.5
				c0-1.4-1.1-2.5-2.5-2.5C83.1,54.5,70.4,54.5,70.4,54.5z"/>
		</g>
		<line class="st22" x1="42.3" y1="22.5" x2="47.9" y2="14.7"/>
	</g>
</g>
<g id="Layer_2">
</g>
<g id="Layer_3">
</g>
</svg>
