<?xml version="1.0" encoding="utf-8"?>
<!-- Generator: Adobe Illustrator 28.1.0, SVG Export Plug-In . SVG Version: 6.00 Build 0)  -->
<svg version="1.1" xmlns="http://www.w3.org/2000/svg" xmlns:xlink="http://www.w3.org/1999/xlink" x="0px" y="0px"
	 viewBox="0 0 100 100" style="enable-background:new 0 0 100 100;" xml:space="preserve">
<style type="text/css">
	.st0{fill:none;stroke:#E88433;stroke-width:2.25;stroke-linecap:round;stroke-linejoin:round;stroke-miterlimit:10;}
	.st1{fill:none;stroke:#3DBBA4;stroke-width:2.205;stroke-linecap:round;stroke-linejoin:round;stroke-miterlimit:10;}
	.st2{fill:none;stroke:#AB43A1;stroke-width:2.025;stroke-linejoin:round;stroke-miterlimit:10;}
	.st3{fill:none;stroke:#B67BB0;stroke-width:2.25;stroke-linecap:round;stroke-linejoin:round;stroke-miterlimit:10;}
	.st4{fill:none;stroke:#3DBBA4;stroke-width:2.25;stroke-linejoin:round;stroke-miterlimit:10;}
	.st5{fill:none;stroke:#3DBBA4;stroke-width:2.25;stroke-linecap:round;stroke-linejoin:round;stroke-miterlimit:10;}
	.st6{fill:none;stroke:#4A596D;stroke-width:2.25;stroke-linecap:round;stroke-linejoin:round;stroke-miterlimit:10;}
	.st7{fill:none;stroke:#4A596D;stroke-width:2.25;stroke-linejoin:round;stroke-miterlimit:10;}
	.st8{fill:none;stroke:#A68446;stroke-width:2.25;stroke-linejoin:round;stroke-miterlimit:10;}
	.st9{fill:none;stroke:#E88433;stroke-width:2.25;stroke-linejoin:round;stroke-miterlimit:10;}
	.st10{fill:none;stroke:#A68446;stroke-width:2.25;stroke-linecap:round;stroke-linejoin:round;stroke-miterlimit:10;}
	.st11{fill:none;stroke:#A68446;stroke-width:2.1422;stroke-linecap:round;stroke-linejoin:round;stroke-miterlimit:10;}
	.st12{fill:none;stroke:#A68446;stroke-width:2.7;stroke-linecap:round;stroke-linejoin:round;}
	.st13{fill:none;stroke:#A68446;stroke-width:2.7;stroke-linecap:round;stroke-linejoin:round;stroke-dasharray:0,4.6616,0,0,0,0;}
	.st14{fill:none;stroke:#A68446;stroke-width:3;stroke-linecap:round;stroke-linejoin:round;}
	.st15{fill:none;stroke:#A68446;stroke-width:3;stroke-linecap:round;stroke-linejoin:round;stroke-dasharray:0,5.1796,0,0,0,0;}
	.st16{fill:none;stroke:#3DBBA4;stroke-width:2.2259;stroke-linecap:round;stroke-linejoin:round;stroke-miterlimit:10;}
	.st17{fill:none;stroke:#A68446;stroke-width:2.5;stroke-linejoin:round;stroke-miterlimit:10;}
	.st18{fill:none;stroke:#3DBBA4;stroke-width:2.7;stroke-linecap:round;stroke-linejoin:round;}
	.st19{fill:none;stroke:#3DBBA4;stroke-width:2.7;stroke-linecap:round;stroke-linejoin:round;stroke-dasharray:0,5.5356,0,0,0,0;}
	.st20{fill:#3DBBA4;}
	.st21{fill-rule:evenodd;clip-rule:evenodd;fill:none;stroke:#AB43A1;stroke-width:2.25;stroke-miterlimit:10;}
	
		.st22{fill-rule:evenodd;clip-rule:evenodd;fill:none;stroke:#AB43A1;stroke-width:2.25;stroke-linejoin:round;stroke-miterlimit:10;}
</style>
<g id="Layer_1">
	<path class="st10" d="M11.2,90.9v-1c0-3.6,2.8-6.5,6.2-6.6l0.1,0c1.4,0,2.7,0.5,3.9,1.3c0.4-1.7,1.4-3.1,2.9-4.1
		c1.1-0.7,2.4-1.1,3.8-1.1c1.4,0,2.7,0.4,3.8,1.1c1.9,1.3,3,3.4,3,5.7c0,0.2,0,0.4,0,0.5c0.9-0.7,2-1.1,3.1-1.1
		c1.5,0,2.9,0.6,3.8,1.8c0.6-2.1,2.1-3.8,4.2-4.6c0.9-0.3,1.4-1.2,1.4-2.1v-4.6h5.7v4.6c0,1,0.6,1.8,1.4,2.1c2,0.8,3.6,2.5,4.1,4.6
		c1-1.1,2.4-1.8,3.8-1.8c1.1,0,2.2,0.4,3.1,1.1l0-0.1c0-0.1,0-0.3,0-0.4c0-2.3,1.1-4.4,3.1-5.7c1.1-0.7,2.4-1.1,3.8-1.1
		c1.4,0,2.7,0.4,3.8,1.1c1.4,1,2.4,2.4,2.8,4c1.2-0.9,2.5-1.3,3.9-1.3l0.2,0c3.4,0.1,6.2,3.1,6.2,6.7v1"/>
	<path class="st8" d="M43.2,71.8c-0.9,0-1.6-0.7-1.6-1.6v-4.6H59v4.6c0,0.9-0.7,1.6-1.6,1.6H43.2z M60.4,24.4
		c3.6,8.5,6.9,16.4,6.2,24c-0.5,5.1-1.7,10.1-3.7,15.4c-0.4,1.1-1.5,1.8-2.6,1.8l-20,0c-1.2,0-2.2-0.7-2.6-1.8
		c-2-5.2-3.2-10.2-3.7-15.4c-0.7-7.5,2.7-15.5,6.2-24c0,0,5.2-12.9,10.1-12.9S60.4,24.4,60.4,24.4z M66.7,48l1.6,1.4
		c4.5,4.2,5.5,10.6,5.7,13.2l0.1,1.1H62.9 M37.6,63.7H26.5l0.1-1.1c0.2-2.6,1.2-9,5.7-13.2l1.6-1.4"/>
	<path class="st8" d="M50.3,52.7c-4.8,0-8.7-3.9-8.7-8.7c0-4.8,3.9-8.7,8.7-8.7S59,39.2,59,44C59,48.8,55.1,52.7,50.3,52.7z"/>
	<line class="st17" x1="40.3" y1="18.6" x2="60.3" y2="18.6"/>
</g>
<g id="Layer_2">
</g>
<g id="Layer_3">
</g>
</svg>
