<?xml version="1.0" encoding="utf-8"?>
<!-- Generator: Adobe Illustrator 28.1.0, SVG Export Plug-In . SVG Version: 6.00 Build 0)  -->
<svg version="1.1" xmlns="http://www.w3.org/2000/svg" xmlns:xlink="http://www.w3.org/1999/xlink" x="0px" y="0px"
	 viewBox="0 0 100 100" style="enable-background:new 0 0 100 100;" xml:space="preserve">
<style type="text/css">
	.st0{fill:none;stroke:#E88433;stroke-width:2.25;stroke-linecap:round;stroke-linejoin:round;stroke-miterlimit:10;}
	.st1{fill:none;stroke:#3DBBA4;stroke-width:2.205;stroke-linecap:round;stroke-linejoin:round;stroke-miterlimit:10;}
	.st2{fill:none;stroke:#AB43A1;stroke-width:2.025;stroke-linejoin:round;stroke-miterlimit:10;}
	.st3{fill:none;stroke:#B67BB0;stroke-width:2.25;stroke-linecap:round;stroke-linejoin:round;stroke-miterlimit:10;}
	.st4{fill:none;stroke:#3DBBA4;stroke-width:2.25;stroke-linejoin:round;stroke-miterlimit:10;}
	.st5{fill:none;stroke:#3DBBA4;stroke-width:2.25;stroke-linecap:round;stroke-linejoin:round;stroke-miterlimit:10;}
	.st6{fill:none;stroke:#4A596D;stroke-width:2.25;stroke-linecap:round;stroke-linejoin:round;stroke-miterlimit:10;}
	.st7{fill:none;stroke:#4A596D;stroke-width:2.25;stroke-linejoin:round;stroke-miterlimit:10;}
	.st8{fill:none;stroke:#A68446;stroke-width:2.25;stroke-linejoin:round;stroke-miterlimit:10;}
	.st9{fill:none;stroke:#E88433;stroke-width:2.25;stroke-linejoin:round;stroke-miterlimit:10;}
	.st10{fill:none;stroke:#A68446;stroke-width:2.25;stroke-linecap:round;stroke-linejoin:round;stroke-miterlimit:10;}
	.st11{fill:none;stroke:#A68446;stroke-width:2.1422;stroke-linecap:round;stroke-linejoin:round;stroke-miterlimit:10;}
	.st12{fill:none;stroke:#A68446;stroke-width:2.7;stroke-linecap:round;stroke-linejoin:round;}
	.st13{fill:none;stroke:#A68446;stroke-width:2.7;stroke-linecap:round;stroke-linejoin:round;stroke-dasharray:0,4.6616,0,0,0,0;}
	.st14{fill:none;stroke:#A68446;stroke-width:3;stroke-linecap:round;stroke-linejoin:round;}
	.st15{fill:none;stroke:#A68446;stroke-width:3;stroke-linecap:round;stroke-linejoin:round;stroke-dasharray:0,5.1796,0,0,0,0;}
	.st16{fill:none;stroke:#3DBBA4;stroke-width:2.2259;stroke-linecap:round;stroke-linejoin:round;stroke-miterlimit:10;}
	.st17{fill:none;stroke:#A68446;stroke-width:2.5;stroke-linejoin:round;stroke-miterlimit:10;}
	.st18{fill:none;stroke:#3DBBA4;stroke-width:2.7;stroke-linecap:round;stroke-linejoin:round;}
	.st19{fill:none;stroke:#3DBBA4;stroke-width:2.7;stroke-linecap:round;stroke-linejoin:round;stroke-dasharray:0,5.5356,0,0,0,0;}
	.st20{fill:#3DBBA4;}
	.st21{fill-rule:evenodd;clip-rule:evenodd;fill:none;stroke:#AB43A1;stroke-width:2.25;stroke-miterlimit:10;}
	
		.st22{fill-rule:evenodd;clip-rule:evenodd;fill:none;stroke:#AB43A1;stroke-width:2.25;stroke-linejoin:round;stroke-miterlimit:10;}
</style>
<g id="Layer_1">
	<g>
		<path class="st3" d="M52.7,21.8c0-3.6,0.3-10.7-8.9-10.7c-7.4,0-14.1,7.9-14.3,12.5c-5.6,0.7-10.8,6.2-10.1,13.1
			c-5.3,2.6-9.1,16.4-2.2,23c-1.3,5.6,2.6,18.6,14.1,17.6c2.8,15.1,21.5,14.6,21.5,3.6v-8.9"/>
		<path class="st3" d="M41.9,34.4c-6.5,0-12.5-1-12.5-10.7"/>
		<path class="st3" d="M30,46.7c3,2,8.1,1.2,10.8-1.7c2-2.1,4.2-5.5,6.4-5.2h5.4h23.3"/>
		<path class="st3" d="M43.7,72.2c1.3-3.1,4.5-3.9,8.9-3.9h23.3"/>
		<path class="st3" d="M33.8,67.2c-3-0.5-5.6-3.3-5.6-5.6"/>
		<path class="st3" d="M31.2,77.3c0-6.9,3.9-15.8,13.9-15.8"/>
		<path class="st3" d="M24.4,41.3c3.1,0,5.6,2.2,5.6,5.3c0,2.5-1.6,4.9-3.8,5.6"/>
		<path class="st3" d="M63.4,25.4H52.7c-4.9,0-9.6-0.7-11.3-4.9"/>
		<line class="st3" x1="52.7" y1="29" x2="52.7" y2="39.7"/>
		<line class="st3" x1="52.7" y1="45.1" x2="52.7" y2="64.8"/>
		<line class="st3" x1="52.7" y1="54" x2="63.4" y2="54"/>
		<line class="st3" x1="56.2" y1="82.6" x2="63.4" y2="82.6"/>
		<circle class="st3" cx="81.3" cy="39.7" r="5.4"/>
		<circle class="st3" cx="68.8" cy="25.4" r="5.4"/>
		<circle class="st3" cx="68.8" cy="54" r="5.4"/>
		<circle class="st3" cx="68.8" cy="82.6" r="5.4"/>
		<circle class="st3" cx="81.3" cy="68.3" r="5.4"/>
	</g>
</g>
<g id="Layer_2">
</g>
<g id="Layer_3">
</g>
</svg>
