<?xml version="1.0" encoding="utf-8"?>
<!-- Generator: Adobe Illustrator 28.1.0, SVG Export Plug-In . SVG Version: 6.00 Build 0)  -->
<svg version="1.1" xmlns="http://www.w3.org/2000/svg" xmlns:xlink="http://www.w3.org/1999/xlink" x="0px" y="0px"
	 viewBox="0 0 100 100" style="enable-background:new 0 0 100 100;" xml:space="preserve">
<style type="text/css">
	.st0{fill:none;stroke:#E88433;stroke-width:2.25;stroke-linecap:round;stroke-linejoin:round;stroke-miterlimit:10;}
	.st1{fill:none;stroke:#3DBBA4;stroke-width:2.205;stroke-linecap:round;stroke-linejoin:round;stroke-miterlimit:10;}
	.st2{fill:none;stroke:#AB43A1;stroke-width:2.025;stroke-linejoin:round;stroke-miterlimit:10;}
	.st3{fill:none;stroke:#B67BB0;stroke-width:2.25;stroke-linecap:round;stroke-linejoin:round;stroke-miterlimit:10;}
	.st4{fill:none;stroke:#3DBBA4;stroke-width:2.25;stroke-linejoin:round;stroke-miterlimit:10;}
	.st5{fill:none;stroke:#3DBBA4;stroke-width:2.25;stroke-linecap:round;stroke-linejoin:round;stroke-miterlimit:10;}
	.st6{fill:none;stroke:#4A596D;stroke-width:2.25;stroke-linecap:round;stroke-linejoin:round;stroke-miterlimit:10;}
	.st7{fill:none;stroke:#4A596D;stroke-width:2.25;stroke-linejoin:round;stroke-miterlimit:10;}
	.st8{fill:none;stroke:#A68446;stroke-width:2.25;stroke-linejoin:round;stroke-miterlimit:10;}
	.st9{fill:none;stroke:#E88433;stroke-width:2.25;stroke-linejoin:round;stroke-miterlimit:10;}
	.st10{fill:none;stroke:#A68446;stroke-width:2.25;stroke-linecap:round;stroke-linejoin:round;stroke-miterlimit:10;}
	.st11{fill:none;stroke:#A68446;stroke-width:2.1422;stroke-linecap:round;stroke-linejoin:round;stroke-miterlimit:10;}
	.st12{fill:none;stroke:#A68446;stroke-width:2.7;stroke-linecap:round;stroke-linejoin:round;}
	.st13{fill:none;stroke:#A68446;stroke-width:2.7;stroke-linecap:round;stroke-linejoin:round;stroke-dasharray:0,4.6616,0,0,0,0;}
	.st14{fill:none;stroke:#A68446;stroke-width:3;stroke-linecap:round;stroke-linejoin:round;}
	.st15{fill:none;stroke:#A68446;stroke-width:3;stroke-linecap:round;stroke-linejoin:round;stroke-dasharray:0,5.1796,0,0,0,0;}
	.st16{fill:none;stroke:#3DBBA4;stroke-width:2.2259;stroke-linecap:round;stroke-linejoin:round;stroke-miterlimit:10;}
	.st17{fill:none;stroke:#A68446;stroke-width:2.5;stroke-linejoin:round;stroke-miterlimit:10;}
	.st18{fill:none;stroke:#3DBBA4;stroke-width:2.7;stroke-linecap:round;stroke-linejoin:round;}
	.st19{fill:none;stroke:#3DBBA4;stroke-width:2.7;stroke-linecap:round;stroke-linejoin:round;stroke-dasharray:0,5.5356,0,0,0,0;}
	.st20{fill:#3DBBA4;}
	.st21{fill-rule:evenodd;clip-rule:evenodd;fill:none;stroke:#AB43A1;stroke-width:2.25;stroke-miterlimit:10;}
	
		.st22{fill-rule:evenodd;clip-rule:evenodd;fill:none;stroke:#AB43A1;stroke-width:2.25;stroke-linejoin:round;stroke-miterlimit:10;}
</style>
<g id="Layer_1">
	<path class="st8" d="M82.9,82.4c0,2.1-1.7,3.8-3.8,3.8c-2.1,0-3.8-1.7-3.8-3.8c0-2.1,1.7-3.8,3.8-3.8
		C81.2,78.6,82.9,80.3,82.9,82.4z"/>
	<path class="st8" d="M87.9,82.3c0-0.7-0.1-1.4-0.2-2l2.5-1.4l-2.5-4.4L85.2,76c-1-0.9-2.2-1.7-3.6-2.1v-2.8h-5v2.9
		C75.2,74.3,74,75,73,76l-2.5-1.4L68,78.9l2.5,1.5c-0.1,0.6-0.2,1.3-0.2,2c0,0.7,0.1,1.4,0.2,2L68,85.9l2.5,4.4l2.5-1.5
		c1,0.9,2.2,1.6,3.5,2v2.9h5v-2.9c1.3-0.4,2.5-1.1,3.5-2l2.5,1.4l2.5-4.4l-2.5-1.4C87.8,83.8,87.9,83.1,87.9,82.3z"/>
	<circle class="st8" cx="17.6" cy="82.4" r="11.1"/>
	<circle class="st8" cx="48.3" cy="35" r="12.5"/>
	<g>
		<path class="st10" d="M20.5,77.6c-0.7-0.5-1.7-0.9-2.6-0.9c-1.8,0-3.3,1.2-3.3,2.7c0,0.9,0.5,1.6,1.3,2.1l3.3,1.7
			c0.9,0.5,1.5,1.3,1.5,2.2c0,1.5-1.5,2.7-3.3,2.7c-1.2,0-2.3-0.5-3-1.2"/>
		<line class="st10" x1="17.6" y1="88.1" x2="17.6" y2="89.9"/>
		<line class="st10" x1="17.6" y1="74.9" x2="17.6" y2="76.7"/>
	</g>
	<line class="st11" x1="44" y1="40" x2="44" y2="35"/>
	<line class="st11" x1="48.3" y1="40" x2="48.3" y2="32.4"/>
	<line class="st11" x1="52.7" y1="40" x2="52.7" y2="29.8"/>
	<path class="st10" d="M40.9,63.7c-1.3-1.8-1.5-3-1.6-3.4c-0.1-0.5-0.2-1.1-0.2-1.6l0-4.2c0-2.1-0.9-4.2-2.6-5.5
		c-3.7-3.1-6-7.6-6.4-12.4c-0.4-4.9,1.1-9.6,4.2-13.3c3-3.6,7.2-5.8,11.8-6.4c0.7-0.1,1.4-0.1,2.1-0.1c4.5,0,8.8,1.7,12.1,4.6
		c3.6,3.3,5.8,7.7,6.1,12.6c0.3,4.9-1.4,9.6-4.6,13.2c-0.5,0.6-1.1,1.2-1.8,1.7c-1.7,1.4-2.6,3.4-2.7,5.6l0,4.2
		c0,0.6-0.1,1.1-0.2,1.7l0,0.1c-0.6,2-1.3,3-1.6,3.3c-1.6,2.1-4.4,3.3-7.4,3.3C45.5,67.1,42.5,65.8,40.9,63.7z"/>
	<line class="st10" x1="39.2" y1="55.9" x2="57.5" y2="55.9"/>
	<line class="st10" x1="39.9" y1="61.3" x2="56.7" y2="61.3"/>
	<line class="st10" x1="24.8" y1="34.9" x2="20.6" y2="34.9"/>
	<line class="st10" x1="48.3" y1="11.3" x2="48.3" y2="7.1"/>
	<line class="st10" x1="31.7" y1="18.3" x2="28.8" y2="15.3"/>
	<line class="st10" x1="71.8" y1="34.9" x2="76" y2="34.9"/>
	<line class="st10" x1="64.9" y1="18.3" x2="67.9" y2="15.3"/>
	<g>
		<g>
			<line class="st12" x1="34.3" y1="76.1" x2="34.3" y2="76.1"/>
			<line class="st13" x1="39" y1="76.1" x2="62.3" y2="76.1"/>
			<line class="st12" x1="62.3" y1="76.1" x2="62.3" y2="76.1"/>
		</g>
	</g>
	<g>
		<g>
			<line class="st14" x1="32.8" y1="92.9" x2="32.8" y2="92.9"/>
			<line class="st15" x1="38" y1="92.9" x2="63.9" y2="92.9"/>
			<line class="st14" x1="63.9" y1="92.9" x2="63.9" y2="92.9"/>
		</g>
	</g>
</g>
<g id="Layer_2">
</g>
<g id="Layer_3">
</g>
</svg>
