<?xml version="1.0" encoding="utf-8"?>
<!-- Generator: Adobe Illustrator 28.1.0, SVG Export Plug-In . SVG Version: 6.00 Build 0)  -->
<svg version="1.1" xmlns="http://www.w3.org/2000/svg" xmlns:xlink="http://www.w3.org/1999/xlink" x="0px" y="0px"
	 viewBox="0 0 100 100" style="enable-background:new 0 0 100 100;" xml:space="preserve">
<style type="text/css">
	.st0{fill:none;stroke:#E88433;stroke-width:2.25;stroke-linecap:round;stroke-linejoin:round;stroke-miterlimit:10;}
	.st1{fill:none;stroke:#3DBBA4;stroke-width:2.205;stroke-linecap:round;stroke-linejoin:round;stroke-miterlimit:10;}
	.st2{fill:none;stroke:#AB43A1;stroke-width:2.025;stroke-linejoin:round;stroke-miterlimit:10;}
	.st3{fill:none;stroke:#B67BB0;stroke-width:2.25;stroke-linecap:round;stroke-linejoin:round;stroke-miterlimit:10;}
	.st4{fill:none;stroke:#3DBBA4;stroke-width:2.25;stroke-linejoin:round;stroke-miterlimit:10;}
	.st5{fill:none;stroke:#3DBBA4;stroke-width:2.25;stroke-linecap:round;stroke-linejoin:round;stroke-miterlimit:10;}
	.st6{fill:none;stroke:#4A596D;stroke-width:2.25;stroke-linecap:round;stroke-linejoin:round;stroke-miterlimit:10;}
	.st7{fill:none;stroke:#4A596D;stroke-width:2.25;stroke-linejoin:round;stroke-miterlimit:10;}
	.st8{fill:none;stroke:#A68446;stroke-width:2.25;stroke-linejoin:round;stroke-miterlimit:10;}
	.st9{fill:none;stroke:#E88433;stroke-width:2.25;stroke-linejoin:round;stroke-miterlimit:10;}
	.st10{fill:none;stroke:#A68446;stroke-width:2.25;stroke-linecap:round;stroke-linejoin:round;stroke-miterlimit:10;}
	.st11{fill:none;stroke:#A68446;stroke-width:2.1422;stroke-linecap:round;stroke-linejoin:round;stroke-miterlimit:10;}
	.st12{fill:none;stroke:#A68446;stroke-width:2.7;stroke-linecap:round;stroke-linejoin:round;}
	.st13{fill:none;stroke:#A68446;stroke-width:2.7;stroke-linecap:round;stroke-linejoin:round;stroke-dasharray:0,4.6616,0,0,0,0;}
	.st14{fill:none;stroke:#A68446;stroke-width:3;stroke-linecap:round;stroke-linejoin:round;}
	.st15{fill:none;stroke:#A68446;stroke-width:3;stroke-linecap:round;stroke-linejoin:round;stroke-dasharray:0,5.1796,0,0,0,0;}
	.st16{fill:none;stroke:#3DBBA4;stroke-width:2.2259;stroke-linecap:round;stroke-linejoin:round;stroke-miterlimit:10;}
	.st17{fill:none;stroke:#A68446;stroke-width:2.5;stroke-linejoin:round;stroke-miterlimit:10;}
	.st18{fill:none;stroke:#3DBBA4;stroke-width:2.7;stroke-linecap:round;stroke-linejoin:round;}
	.st19{fill:none;stroke:#3DBBA4;stroke-width:2.7;stroke-linecap:round;stroke-linejoin:round;stroke-dasharray:0,5.5356,0,0,0,0;}
	.st20{fill:#3DBBA4;}
	.st21{fill-rule:evenodd;clip-rule:evenodd;fill:none;stroke:#AB43A1;stroke-width:2.25;stroke-miterlimit:10;}
	
		.st22{fill-rule:evenodd;clip-rule:evenodd;fill:none;stroke:#AB43A1;stroke-width:2.25;stroke-linejoin:round;stroke-miterlimit:10;}
</style>
<g id="Layer_1">
	<path class="st0" d="M92.6,29.4l-3.4,0.7l-1.9,4.6l1.9,2.9l-4.5,4.5l-2.9-1.9l-4.6,1.9l-0.7,3.4h-6.4l-0.7-3.4L65,40.2l-2.9,1.9
		l-4.5-4.5l1.9-2.9l-1.9-4.6l-3.4-0.7v-6.3l3.4-0.7l1.9-4.6L57.6,15l4.5-4.5l2.9,1.9l4.6-1.9l0.7-3.4h6.4l0.7,3.4l4.6,1.9l2.9-1.9
		l4.5,4.5l-1.9,2.9l1.9,4.6l3.4,0.7V29.4z"/>
	<circle class="st0" cx="73.4" cy="26.3" r="8.6"/>
	<path class="st0" d="M74.3,45.5c0.3,1.6,0.5,3.2,0.5,4.8c0,14-11.3,25.3-25.3,25.3S24.1,64.3,24.1,50.3S35.4,25,49.4,25
		c1.6,0,3.2,0.2,4.8,0.4"/>
	<g>
		<line class="st0" x1="50.1" y1="32.3" x2="31.5" y2="50.9"/>
		<line class="st0" x1="34.2" y1="59.8" x2="58.9" y2="35"/>
		<line class="st0" x1="40" y1="65.6" x2="64.7" y2="40.8"/>
		<line class="st0" x1="48.9" y1="68.2" x2="67.4" y2="49.7"/>
	</g>
	<path class="st0" d="M64.5,40.5c1.8,2.8,2.9,6.2,2.9,9.8c0,9.9-8,18-18,18s-18-8-18-18s8-18,18-18c3.6,0,6.9,1.1,9.7,2.9"/>
	<path class="st0" d="M90.5,82.9c2.3,2.3,2.3,6.1,0,8.4c-2.3,2.3-6.1,2.3-8.4,0L66.9,76.1l8.4-8.4L90.5,82.9z"/>
	<line class="st0" x1="70.8" y1="80" x2="79.2" y2="71.6"/>
	<line class="st0" x1="68.7" y1="74.3" x2="64.8" y2="70.4"/>
	<line class="st0" x1="73.4" y1="69.5" x2="69.6" y2="65.7"/>
	<path class="st0" d="M44.3,75.1c-0.6,9.9-8.8,17.8-18.9,17.8C15,92.9,6.6,84.5,6.6,74c0-10.1,8-18.4,18-18.9"/>
	<circle class="st0" cx="25.5" cy="74.1" r="7.1"/>
	<circle class="st0" cx="25.5" cy="74.1" r="2.5"/>
	<path class="st0" d="M40.5,74c0,0-5.8,7.3-15,7.3s-15-7.3-15-7.3s5.8-7.2,15-7.2c2,0,3.9,0.4,5.6,0.9"/>
</g>
<g id="Layer_2">
</g>
<g id="Layer_3">
</g>
</svg>
