<?xml version="1.0" encoding="UTF-8"?>
<svg xmlns="http://www.w3.org/2000/svg" version="1.1" viewBox="0 0 385 99">
  <defs>
    <style>
      .cls-1 {
        fill: #fff;
      }
    </style>
  </defs>
  <!-- Generator: Adobe Illustrator 28.6.0, SVG Export Plug-In . SVG Version: 1.2.0 Build 709)  -->
  <g>
    <g id="Insumos">
      <g>
        <path class="cls-1" d="M31.5,60.7v16.4l19.3-27.5-33.5,2.9,14.2,8.2ZM31.5,35.2l-14.2,8.2,33.5,2.9-19.3-27.5v16.4ZM53.6,22.4l-14.2-8.2,14.2,30.4,14.2-30.4-14.2,8.2ZM75.7,35.2v-16.4l-19.3,27.5,33.5-2.9-14.2-8.2ZM75.7,60.7l14.2-8.2-33.5-2.9,19.3,27.5v-16.4ZM39.4,81.6l14.2-30.4,14.2,30.4-14.2-8.2-14.2,8.2Z"/>
        <path class="cls-1" d="M85.5,23.5l12.3,10.8.3-16.4-4.7,6.5-8-.9ZM85.9,71.9l-7,14.8,15.8-4.2-7.5-2.8-1.4-7.9ZM90.9,62.8l-3,16.1,14.2-8.1-8-.8-3.3-7.3ZM93.5,52.8l1.3,16.3,11.7-11.5-7.9,1.3-5.1-6.2ZM93.4,42.4l5.4,15.5,8.4-14.1-7.3,3.3-6.5-4.7ZM90.7,32.4l9.2,13.6,4.5-15.8-6.2,5-7.5-2.9ZM78.2,16.1l14.7,7.3-3.9-15.9-2.9,7.5-7.9,1.2ZM69.2,10.9l16.1,3.3L77.5-.2l-.9,8-7.3,3.2ZM69.4,88.7l-15.8-4.2,6.9,14.9,1.4-7.9,7.5-2.7ZM45.3,91.5l1.4,7.9,6.9-14.9-15.8,4.2,7.5,2.7ZM78.7,79.3l-10.5,12.6h16.4s-6.6-4.6-6.6-4.6l.7-8ZM29.2,87.3l-6.6,4.6h16.4s-10.5-12.6-10.5-12.6l.7,8ZM20,79.8l-7.5,2.8,15.8,4.2-7-14.8-1.4,7.9ZM12.9,70.1l-8,.8,14.2,8.1-3-16.1-3.3,7.3ZM8.6,59l-7.9-1.3,11.7,11.5,1.3-16.3-5.1,6.2ZM7.3,47.1L0,43.8l8.4,14.1,5.4-15.5-6.5,4.7ZM9.1,35.3l-6.2-5,4.5,15.8,9.2-13.6-7.5,2.9ZM13.8,24.3l-4.7-6.5.3,16.4,12.3-10.8-8,.9ZM21.1,14.9l-2.9-7.5-3.9,15.9,14.7-7.3-7.9-1.2ZM38,10.9l-16.1,3.3L29.8-.2l.9,8,7.3,3.2Z"/>
        <path class="cls-1" d="M336.5,34.5v13.8h9.3c2.7,0,4.9-.4,6.6-1.5,1.7-1,2.6-2.9,2.7-5.5,0-2.5-.9-4.3-2.6-5.3-1.7-1-4.1-1.5-7.1-1.5h-8.9ZM312.2,80.4V23h41.3c7.9-.1,14.1.9,18.6,3.1,4.5,2.2,6.7,6.4,6.8,12.5,0,3.8-1.2,6.8-3.5,9.1-2.3,2.3-5.2,3.8-8.9,4.4v.8c2.8,0,5.3.7,7.3,1.9,2,1.2,3.3,3.2,3.8,6.1,1,6.5,2.1,13,3.1,19.5h-24.2c-.7-4.3-1.3-8.7-2-13-.4-3.5-1.3-5.7-2.6-6.8-1.3-1-4-1.5-8-1.4h-7.4v16.8c0,2.4-1.9,4.3-4.3,4.3h-20ZM110.5,80.4h24.4v-21.5h27.3v-7.8c0-2.4-1.9-4.3-4.3-4.3h-23v-11.6h28.8v-7.8c0-2.4-1.9-4.3-4.3-4.3h-48.8v57.4ZM169.3,80.4h51v-9.7c0-2.4-1.9-4.3-4.3-4.3h-22.3V27.3c0-2.4-1.9-4.3-4.3-4.3h-20v57.4ZM257.2,58.2h18.3l-8.9-20.1-9.3,20.1ZM252.5,23h27.6c1.6,0,3.1.9,3.9,2.4,8.3,16.2,16.6,32.5,24.9,48.7,1.5,2.9-.6,6.3-3.9,6.3h-19.6c-1.4-3.2-2.8-6.4-4.2-9.6h-29.7c-1.1,2.4-2.2,4.8-3.3,7.1-.7,1.5-2.2,2.5-3.9,2.5h-21c9.8-19.1,19.6-38.3,29.3-57.4"/>
        <polygon class="cls-1" points="110.5 84.3 116 84.3 116 85.1 111.6 85.1 111.6 87.7 115.7 87.7 115.7 88.5 111.6 88.5 111.6 92 110.5 92 110.5 84.3"/>
        <path class="cls-1" d="M121.7,91.3c1.9,0,3.2-1.3,3.2-3.2s-1.3-3.2-3.2-3.2-3.2,1.3-3.2,3.2,1.3,3.2,3.2,3.2M121.7,84.1c3.2,0,4.3,2.2,4.3,4.1s-1.1,4.1-4.3,4.1-4.3-2.2-4.3-4.1,1.1-4.1,4.3-4.1"/>
        <polygon class="cls-1" points="134.2 84.3 135.3 84.3 135.3 92 133.8 92 129.1 85.4 129 85.4 129 92 127.9 92 127.9 84.3 129.4 84.3 134.2 90.9 134.2 90.9 134.2 84.3"/>
        <path class="cls-1" d="M138.7,91.1h2.1c2.5,0,3.2-1.5,3.2-3s-.9-3-3.5-3h-1.8v6ZM137.6,84.3h3c3.4,0,4.6,1.4,4.6,4s-1.4,3.8-4.4,3.8h-3.2v-7.7Z"/>
        <path class="cls-1" d="M151.1,91.3c1.9,0,3.2-1.3,3.2-3.2s-1.3-3.2-3.2-3.2-3.2,1.3-3.2,3.2,1.3,3.2,3.2,3.2M151.1,84.1c3.2,0,4.3,2.2,4.3,4.1s-1.1,4.1-4.3,4.1-4.3-2.2-4.3-4.1,1.1-4.1,4.3-4.1"/>
        <polygon class="cls-1" points="161.5 84.3 162.6 84.3 162.6 91.1 167.1 91.1 167.1 92 161.5 92 161.5 84.3"/>
        <path class="cls-1" d="M174.6,89.1l-1.9-3.9-1.9,3.9h3.9ZM175,90h-4.7l-1,2h-1.2l4-7.7h1.3l4,7.7h-1.3l-1-2Z"/>
        <polygon class="cls-1" points="179.8 85.2 176.5 85.2 176.5 84.3 184.2 84.3 184.2 85.2 180.9 85.2 180.9 92 179.8 92 179.8 85.2"/>
        <rect class="cls-1" x="185.5" y="84.3" width="1.1" height="7.7"/>
        <polygon class="cls-1" points="195.1 84.3 196.2 84.3 196.2 92 194.7 92 190 85.4 190 85.4 190 92 188.9 92 188.9 84.3 190.4 84.3 195.1 90.9 195.1 90.9 195.1 84.3"/>
        <path class="cls-1" d="M202.5,91.3c1.9,0,3.2-1.3,3.2-3.2s-1.3-3.2-3.2-3.2-3.2,1.3-3.2,3.2,1.3,3.2,3.2,3.2M202.5,84.1c3.2,0,4.3,2.2,4.3,4.1s-1.1,4.1-4.3,4.1-4.3-2.2-4.3-4.1,1.1-4.1,4.3-4.1"/>
        <path class="cls-1" d="M214,89.1l-1.9-3.9-1.9,3.9h3.9ZM214.4,90h-4.7l-1,2h-1.2l4-7.7h1.3l4,7.7h-1.3l-1-2Z"/>
        <polygon class="cls-1" points="219.2 85.1 219.2 85.1 219.2 92 218.1 92 218.1 84.3 219.8 84.3 223.2 91.1 226.7 84.3 228.4 84.3 228.4 92 227.3 92 227.3 85.1 227.3 85.1 223.8 92 222.7 92 219.2 85.1"/>
        <polygon class="cls-1" points="230.8 84.3 236.6 84.3 236.6 85.1 231.9 85.1 231.9 87.6 236.3 87.6 236.3 88.5 231.9 88.5 231.9 91.1 236.7 91.1 236.7 92 230.8 92 230.8 84.3"/>
        <path class="cls-1" d="M239.6,87.7h2.5c1.2,0,1.9-.3,1.9-1.3s-.5-1.3-1.9-1.3h-2.6v2.5ZM239.6,92h-1.1v-7.7h3.8c2.4,0,2.9.8,2.9,2s-.7,1.6-1.8,1.8h0c1,.1,1.3.6,1.5,1.9.1.8.2,1.5.4,2h-1.2c-.2-.5-.3-1.6-.5-2.5-.1-.6-.5-1-2-1h-2.1v3.4Z"/>
        <rect class="cls-1" x="247.2" y="84.3" width="1.1" height="7.7"/>
        <path class="cls-1" d="M258.1,89.8c-.2,1.7-1.9,2.4-3.7,2.4-2.8,0-4-1.9-4-4.1s1.1-4.1,4.3-4.1,3.2.9,3.3,2.2h-1.2c-.2-1-1.1-1.4-2.2-1.4-1.8,0-3.1,1-3.1,3.2s1.3,3.2,3.1,3.2,2.1-.5,2.3-1.5h1.2Z"/>
        <path class="cls-1" d="M265.4,89.1l-1.9-3.9-1.9,3.9h3.9ZM265.9,90h-4.7l-1,2h-1.2l4-7.7h1.3l4,7.7h-1.3l-1-2Z"/>
        <polygon class="cls-1" points="275.8 84.3 276.9 84.3 276.9 92 275.4 92 270.6 85.4 270.6 85.4 270.6 92 269.5 92 269.5 84.3 271 84.3 275.7 90.9 275.8 90.9 275.8 84.3"/>
        <path class="cls-1" d="M283.1,91.3c1.9,0,3.2-1.3,3.2-3.2s-1.3-3.2-3.2-3.2-3.2,1.3-3.2,3.2,1.3,3.2,3.2,3.2M283.1,84.1c3.2,0,4.3,2.2,4.3,4.1s-1.1,4.1-4.3,4.1-4.3-2.2-4.3-4.1,1.1-4.1,4.3-4.1"/>
        <path class="cls-1" d="M294.4,91.1h2.1c2.5,0,3.2-1.5,3.2-3s-.9-3-3.5-3h-1.8v6ZM293.3,84.3h3c3.4,0,4.6,1.4,4.6,4s-1.4,3.8-4.4,3.8h-3.2v-7.7Z"/>
        <polygon class="cls-1" points="302.9 84.3 308.7 84.3 308.7 85.1 304 85.1 304 87.6 308.4 87.6 308.4 88.5 304 88.5 304 91.1 308.8 91.1 308.8 92 302.9 92 302.9 84.3"/>
        <path class="cls-1" d="M315.8,87.7h2.5c1.2,0,1.9-.3,1.9-1.3s-.5-1.3-1.9-1.3h-2.6v2.5ZM315.8,92h-1.1v-7.7h3.8c2.4,0,2.9.8,2.9,2s-.7,1.6-1.8,1.8h0c1,.1,1.3.6,1.5,1.9.1.8.2,1.5.4,2h-1.2c-.2-.5-.3-1.6-.5-2.5-.1-.6-.5-1-2-1h-2.1v3.4Z"/>
        <polygon class="cls-1" points="323.5 84.3 329.3 84.3 329.3 85.1 324.7 85.1 324.7 87.6 329 87.6 329 88.5 324.7 88.5 324.7 91.1 329.4 91.1 329.4 92 323.5 92 323.5 84.3"/>
        <path class="cls-1" d="M336.6,86.3c-.1-1.1-1.2-1.4-2.5-1.4s-2,.5-2,1.4.3.8,1.2,1l2.9.5c1.3.2,1.8.9,1.8,1.9,0,1.5-1.4,2.5-3.7,2.5s-3.5-.8-3.6-2.5h1.2c0,1,1,1.6,2.5,1.6s2.5-.6,2.5-1.5c0-2.1-5.9-.2-5.9-3.4s1.3-2.3,3.4-2.3,3.3.5,3.4,2.3h-1.2Z"/>
        <polygon class="cls-1" points="340 84.3 345.8 84.3 345.8 85.1 341.1 85.1 341.1 87.6 345.5 87.6 345.5 88.5 341.1 88.5 341.1 91.1 345.9 91.1 345.9 92 340 92 340 84.3"/>
        <path class="cls-1" d="M348.8,87.7h2.5c1.2,0,1.9-.3,1.9-1.3s-.5-1.3-1.9-1.3h-2.6v2.5ZM348.8,92h-1.1v-7.7h3.8c2.4,0,2.9.8,2.9,2s-.7,1.6-1.8,1.8h0c1,.1,1.3.6,1.5,1.9.1.8.2,1.5.4,2h-1.2c-.2-.5-.3-1.6-.5-2.5-.1-.6-.5-1-1.9-1h-2.2v3.4Z"/>
        <polygon class="cls-1" points="355.4 84.3 356.6 84.3 359.6 91.1 362.7 84.3 363.8 84.3 360.3 92 358.9 92 355.4 84.3"/>
        <path class="cls-1" d="M369.9,89.1l-1.9-3.9-1.9,3.9h3.9ZM370.3,90h-4.7l-1,2h-1.2l4-7.7h1.3l4,7.7h-1.3l-1-2Z"/>
        <path class="cls-1" d="M379.2,86.3c-.1-1.1-1.2-1.4-2.5-1.4s-2,.5-2,1.4.3.8,1.2,1l2.9.5c1.3.2,1.8.9,1.8,1.9,0,1.5-1.4,2.5-3.7,2.5s-3.5-.8-3.6-2.5h1.2c0,1,1,1.6,2.5,1.6s2.5-.6,2.5-1.5c0-2.1-5.9-.2-5.9-3.4s1.3-2.3,3.4-2.3,3.3.5,3.4,2.3h-1.2Z"/>
      </g>
    </g>
  </g>
</svg>