<?xml version="1.0" encoding="UTF-8"?>
<svg xmlns="http://www.w3.org/2000/svg" version="1.1" viewBox="0 0 239.8 42.9">
  <defs>
    <style>
      .cls-1 {
        fill: #fff;
      }

      .cls-2 {
        fill: #d25d12;
      }
    </style>
  </defs>
  <!-- Generator: Adobe Illustrator 28.6.0, SVG Export Plug-In . SVG Version: 1.2.0 Build 709)  -->
  <g>
    <g id="Revision">
      <g>
        <g>
          <polygon class="cls-1" points="11 3.5 14.7 3.5 14.7 5.8 17.5 5.8 17.5 .4 0 .4 0 8 2.8 8 2.8 3.5 6.4 3.5 6.4 17.2 3.4 17.2 3.4 19.9 14 19.9 14 17.2 11 17.2 11 3.5 11 3.5"/>
          <path class="cls-1" d="M38.3.2c-1.7,0-3,.5-3.8,1.4-.8.9-1.3,2.1-1.3,3.5v1.6h-1.9v2.6h1.9v8.1h-1.9v2.6h7.9v-2.6h-2.2v-8.1h2.2v-2.6h-2.2v-1.8c0-1.8.8-2.2,1.5-2.2s1.1.4,1.4,1.3c.2-.2,2.4-1.9,2.6-2-.9-1-2.3-1.6-4.2-1.6ZM30.5,20v-2.6h-1.6V6.7h-5.9v2.6h2.1v6.7h-.1c-1,.8-1.8,1.2-2.7,1.2s-1.1-.2-1.4-.5c-.3-.3-.4-.8-.4-1.6V6.7h-5.9v2.6h2.1v6.9c0,1.3.3,2.3,1,3,.7.7,1.7,1,2.9,1s2.6-.4,3.9-1.3l.5-.3v1.5c.3,0,5.2,0,5.4,0Z"/>
          <path class="cls-1" d="M59.7,22.5c0,0-.1,0-.5,0s-.5,0-.6,0,0,0,0,0h0q0,.1,0,.1h.1c.1,0,.2,0,.2.2s-.6,1.2-.8,1.4c-.1-.3-.7-1.4-.8-1.5,0-.1,0-.1.1-.1h.1s0,0,0,0h0q0-.1,0-.1c0,0-.2,0-.7,0s-.6,0-.7,0,0,0,0,0h0q0,.2,0,.2h0c0,0,.2,0,.3.1.1.2,1,1.6,1,1.7v.2c0,.5,0,.8,0,.9,0,0,0,.1-.2.1h-.2s0,0,0,0h0c0,.1,0,.2,0,.2,0,0,.2,0,.7,0s.6,0,.7,0,0,0,0,0h0q0-.1,0-.1h-.2c0,0-.2,0-.2-.2,0,0,0-.4,0-.6v-.6c.2-.3,1-1.6,1.1-1.7,0,0,.2-.1.3-.1h.1s0,0,0,0h0q0,0,0,0ZM53.1,22.3s0,0,0,0c0,0-.3.1-.3.1-.2,0-.4,0-1,0h-.3c-.5,0-.7,0-1,0s-.2,0-.3-.1c0,0,0,0,0,0s0,0,0,0c0,0-.2.7-.2.9t0,0h0s0,0,0,0c0-.2.3-.5.4-.6.2,0,.6,0,.7,0h.1v1.2c0,0,0,1.6,0,1.7,0,0,0,.1-.2.1h-.3s0,0,0,0h0c0,.1,0,.2,0,.2,0,0,.3,0,.8,0s.7,0,.8,0,0,0,0,0h0c0-.1,0-.2,0-.2h-.3c-.1,0-.2,0-.2-.5v-2.6h.1c.2,0,.6,0,.8,0,.1,0,.3.4.4.5,0,0,0,0,0,0h0s0,0,0,0c0-.2-.1-.8-.1-1,0,0,0,0,0,0ZM46.8,25.9h-.2c-.1,0-.2,0-.2-.2v-2.8c0,0,0-.1.2-.1h.2s0,0,0,0h0c0-.1,0-.2,0-.2,0,0-.2,0-.7,0s-.8,0-.8,0,0,0,0,0h0q0,.1,0,.1h.3c.1,0,.2,0,.2.2s0,1,0,1.1v.3c0,.3,0,1.3,0,1.4,0,.1-.1.1-.2.1h-.2s0,0,0,0h0q0,.2,0,.2c0,0,.3,0,.8,0s.7,0,.7,0,0,0,0,0h0c0-.1,0-.2,0-.2ZM41.2,23.9c-.2,0-.5-.2-.6-.3-.1-.1-.1-.3-.1-.4s.1-.5.5-.5.4,0,.5.2c.2.2.3.4.3.5,0,0,0,0,0,0h0s0,0,0,0c0,0,0-.7,0-.8s0,0,0,0,0,0,0,0h0c0,0,0,0-.1,0,0,0-.3-.1-.6-.1s-.5,0-.7.2c-.2.2-.3.4-.3.7s0,.5.3.7c.2.2.6.3.7.4.5.2.7.3.7.8s-.4.6-.6.6-.5-.1-.7-.3c-.1-.2-.2-.4-.2-.6t0,0h-.1s0,0,0,0c0,0,0,.9,0,.9s0,0,0,0,0,0,0,0c0,0,0,0,0,0s0,0,.1,0c.2.1.4.2.8.2.7,0,1-.5,1-1.1s0-.5-.3-.7c-.2-.2-.4-.3-.7-.4ZM34.9,24.3c0,0-.1,0-.2,0v-1.4c0,0,0-.1,0-.1,0,0,0,0,.2,0,.3,0,.5,0,.7.2.1.1.2.3.2.5s-.2.9-.9.9ZM37,25.9c-.1,0-.3,0-.3,0,0,0-.4-.5-.4-.6,0,0-.3-.5-.4-.6,0,0-.1-.2-.3-.2h0c.5-.1.9-.4.9-1s0-.4-.3-.5c-.2-.2-.5-.3-.9-.3s-.6,0-.9,0c-.5,0-.6,0-.7,0s0,0,0,0h0q0,.2,0,.2h.2c0,0,.1,0,.1.3v2.7c0,.1,0,.2-.2.2h-.2s0,0,0,0h0c0,.1,0,.2,0,.2,0,0,.2,0,.7,0s.6,0,.7,0,0,0,0,0h0q0-.1,0-.1h-.3c0,0-.1,0-.1-.2s0-.6,0-.9v-.3h.1c.2,0,.3.1.4.3,0,.1.2.3.3.4,0,0,.2.4.3.6,0,.1.1.2.2.3.1,0,.3,0,.4,0,.3,0,.4,0,.5,0s0,0,0,0h0q0-.1,0-.1ZM30.6,25.1s0,0,0,0c0,.1-.4.4-.5.5-.1.1-.3.1-.4.2,0,0-.3,0-.4,0-.2,0-.3,0-.4,0-.1,0-.2-.1-.2-.4s0-.6,0-.8v-.3c.1,0,.4,0,.6,0,.1,0,.2,0,.3.2,0,0,0,.2,0,.3,0,0,0,0,0,0h.1s0,0,0,0c0-.1,0-.3,0-.5v-.5s0,0,0,0h-.1s0,0,0,0c0,0,0,.2,0,.3,0,.1-.1.1-.2.2,0,0-.4,0-.6,0v-1.4h.8c.1,0,.3,0,.4.1.1,0,.5.5.5.5t0,0h0s0,0,0,0c0,0-.2-.7-.2-.8,0,0,0,0,0,0h-1.9c-.4,0-.6,0-.7,0s0,0,0,0h0q0,.1,0,.1h.2c.1,0,.2,0,.2.2,0,0,0,.7,0,1.1v1.7c0,.2,0,.2-.3.2h-.2s0,0,0,0h0q0,.1,0,.1c0,0,.3,0,.6,0,1.6,0,2,0,2.1,0,0,0,0,0,.1,0l.2-.7h0c0,0-.1,0-.1,0h0ZM24.7,22.5s-.2,0-.6,0-.5,0-.6,0,0,0,0,0h0c0,.1,0,.2,0,.2h.1c.1,0,.2,0,.2.1,0,.2-.3,1-.4,1.2,0,.1-.4,1-.5,1.2,0-.3-.3-1-.4-1.2,0-.3-.3-.9-.3-1,0,0,0-.1,0-.2,0,0,0-.1.2-.1h.2s0,0,0,0h0q0-.1,0-.1s-.3,0-.7,0-.7,0-.7,0,0,0,0,0h0c0,.1,0,.2,0,.2h.1c.1,0,.2,0,.2.1,0,.1.3.8.4,1.1.2.5.6,1.6.8,2,0,0,0,.1.1.1s0,0,0,0c0-.1.6-1.6.8-1.8.1-.3.4-1.1.6-1.4.1-.2.2-.2.4-.2h.1s0,0,0,0h0q0-.2,0-.2ZM18.2,25.9h-.2c-.1,0-.2,0-.2-.2v-2.8c0,0,0-.1.2-.1h.2s0,0,0,0h0c0-.1,0-.2,0-.2,0,0-.2,0-.7,0s-.8,0-.8,0,0,0,0,0h0q0,.1,0,.1h.3c.1,0,.2,0,.2.2s0,1,0,1.1v.3c0,.3,0,1.3,0,1.4,0,.1-.1.1-.2.1h-.2s0,0,0,0h0q0,.2,0,.2c0,0,.3,0,.8,0s.7,0,.7,0,0,0,0,0h0c0-.1,0-.2,0-.2ZM13.5,22.5c0,0-.2,0-.5,0s-.5,0-.5,0,0,0,0,0h0c0,.1,0,.2,0,.2h.1c.1,0,.2,0,.3.2,0,0,0,.6,0,.8v1.4h0c0,0-.8-1.1-.9-1.1,0-.1-1.1-1.4-1.1-1.4,0,0,0,0-.1,0h-1s0,0,0,0h0q0,.2,0,.2h.1c.2,0,.4.2.4.5v.6c0,.8,0,1.5,0,1.6,0,.3,0,.4-.2.4h-.2s0,0,0,0h0c0,.1,0,.2,0,.2,0,0,.4,0,.5,0s.5,0,.5,0,0,0,0,0h0c0-.1,0-.2,0-.2h-.1c-.2,0-.2-.1-.3-.4,0-.1,0-.8,0-1.7v-.6h0c0,0,.8,1.1.9,1.1,0,0,.4.5.8,1,.3.4.6.7.6.7,0,0,0,0,.2,0s0,0,0-.1v-1.3c0-.5,0-1.3,0-1.7,0-.2,0-.3.2-.3h.1s0,0,0,0h0c0-.1,0-.1,0-.1ZM6.9,22.5s-.2,0-.5,0-.5,0-.6,0,0,0,0,0h0q0,.1,0,.1h.2c.1,0,.2,0,.2.2,0,.1,0,.5,0,1v.9c0,.4,0,.6-.3.8-.1.1-.4.2-.7.2s-.5,0-.7-.3c-.1-.1-.1-.4-.2-.6,0-.1,0-.5,0-.8v-.6c0-.3,0-.6,0-.6,0-.1,0-.2.2-.2h.2s0,0,0,0h0q0-.1,0-.1c0,0-.3,0-.7,0s-.7,0-.8,0,0,0,0,0h0c0,.1,0,.2,0,.2h.2c.1,0,.2,0,.2.3v1.2c0,.6,0,1,0,1.2,0,.3.3.5.6.7.2,0,.5.1.7.1.4,0,.7-.1.9-.3.3-.2.4-.5.4-1,0-.2,0-1.1,0-1.1v-.8c0,0,0-.2.2-.2h.2s0,0,0,0h0q0-.2,0-.2ZM60.7,16c0-.9-.3-1.7-.7-2.3-.5-.7-1.2-1.1-2-1.4-.8-.3-2.1-.6-3.8-.9-1.1-.2-1.8-.4-2.1-.5-.3-.2-.5-.4-.5-.8,0-.8.7-1.3,2.1-1.3s2.8.5,3.2,1.4h2.9v-3.7h-2.8v.6h-.3c-1.1-.6-2.2-.8-3.4-.8s-2.7.4-3.6,1.2c-.9.8-1.3,1.7-1.3,2.8s.5,2.1,1.4,2.8c1,.7,2.6,1.3,4.8,1.6,1.1.2,1.9.4,2.3.6.4.2.7.6.7,1s-.2.8-.7,1.1c-.4.3-1,.4-1.8.4s-1.6-.2-2.3-.6c-.5-.4-.9-.9-1-1.5h-2.9v4.4h2.9v-1l.3.4c.6.6,1.7,1,3.3,1s3.1-.4,4-1.2c.9-.8,1.4-1.9,1.4-3.2ZM45.6,1.6c-.3.2-1.2.8-1.2.8,0,0-2.5,1.8-2.7,1.9v2.3h-1.8v2.6h1.8v7.6c0,2.3,1.1,3.3,3.3,3.3s2-.2,3-.6v-2.4c-.4.1-.8.2-1.1.2-.6,0-1-.1-1.2-.4-.2-.3-.3-.7-.3-1.3v-6.3h2.6v-2.6h-2.6s0-4.6,0-5.1Z"/>
        </g>
        <rect class="cls-1" x="70" y=".4" width="1" height="42.6"/>
        <g>
          <path class="cls-1" d="M85.2,34.8c.4,0,.4,0,.5,0v-.2c.3-.1.5-.2.7-.2h0c0,0-.6,1.8-.6,1.8l-.9,2.6h0c.6-.8,1-1.2,1.4-1.4s.6-.3.8-.3c.4,0,.5.3.5.6,0,.6-.4,1.5-.7,2.1-.2.3-.3.5-.6.7-.3.3-.5.3-.6.3-.3,0-.3-.2-.3-.3,0-.1.1-.3.2-.3s0,0,.1,0c0,0,.2.1.2.1.1,0,.2-.1.3-.4.2-.6.6-1.8.6-2.3s0-.3-.2-.3-.3.1-.5.2c-.4.3-.6.6-1.1,1.2-.4.5-.8,1.4-1,1.8,0,0,0,.1-.2.1s-.3,0-.2-.2l1.5-4.7c.2-.6.2-.7-.6-.7h-.9c-.3,0-.3,0-.4.4l-1.3,3.9c-.3.8-.3,1,.2,1h.3c0,0,0,.2,0,.2-.4,0-.7,0-1.1,0s-.6,0-1,0c0,0,0-.2,0-.2h.3c.4,0,.5-.2.8-1.1l1.3-3.9c.1-.4,0-.4-.2-.4h-.7c-.8,0-1,.2-1.4.8,0,0-.2,0-.2,0,.2-.4.5-.9.6-1.2,0,0,.1,0,.2,0,0,.2,0,.2.6.2h3.6Z"/>
          <path class="cls-1" d="M89.1,37.7c-.3.4-.5.8-.6,1,.6-.2.8-.3,1.2-.7.3-.3.3-.5.3-.6s0-.2-.2-.2-.3,0-.7.4h0ZM90.5,37.5c0,.7-.8,1.1-2.1,1.5,0,.1-.1.4-.1.8s.2.5.4.5.5-.2.9-.5c0,0,.1,0,.1.1-.5.7-1,.8-1.4.8-.5,0-.7-.5-.7-.9s.3-1.6,1.3-2.4c.4-.4.8-.4,1-.4s.5.3.5.5h0Z"/>
          <path class="cls-1" d="M93.1,37.6c-.3.4-.8,1.2-.8,1.6s.1.3.3.3.3,0,.6-.3c.5-.6.8-1.4.8-1.6s-.1-.3-.3-.3-.3,0-.6.4ZM93.7,42c0-.1,0-.3-.4-.5-.4-.2-.7-.4-.8-.4-.2,0-.6.1-.8.3-.2.2-.3.4-.3.6,0,.4.6.7,1.2.7s1.1-.2,1.1-.6h0ZM94,37.1c0,0,.2,0,.2,0,0,0,.2,0,.4,0,.2,0,.3,0,.4,0,.1,0,.2,0,.2.2,0,.2-.1.3-.2.3s-.2,0-.3,0c0,0-.3,0-.3,0s0,0,0,0c0,0,0,.2,0,.3,0,.7-.5,1.4-1.1,1.8,0,0-.4.2-.6.2,0,0-.2.2-.2.3s0,.3.3.4c.2.1.5.3.8.5.5.3.6.6.6.9,0,.5-.7,1-2.1,1s-1.4-.2-1.4-.8,1-1.1,1.5-1.2c-.2-.1-.3-.3-.3-.4s.3-.5.4-.7c-.2,0-.6-.2-.6-.8s.3-1.1.7-1.5c.4-.4.8-.5,1.3-.5s.2,0,.3,0h0Z"/>
          <path class="cls-1" d="M96.4,37.8l-.4,1.1h0c.3-.5.7-1.2.9-1.5.2-.3.4-.5.6-.5s.3.3.3.4,0,.4-.2.5c-.1.1-.2.1-.3,0,0-.2,0-.3-.2-.3s-.2,0-.3.3c-.5.7-1,1.8-1.5,2.8,0,0,0,.1-.1.1s-.3,0-.3-.2c.1-.4.7-1.9.9-2.8,0,0,0-.2,0-.2-.2,0-.5.2-.6.5,0,0-.1,0-.1-.1.3-.5.6-.8,1-.8s.3.6.2.8h0Z"/>
          <path class="cls-1" d="M99.1,37.8c-.6.5-1.1,1.6-1.1,2.3s0,.2.1.2.3-.1.8-.6c.7-.6,1-1.4,1.2-1.9,0-.2-.2-.3-.4-.3s-.3,0-.6.3ZM100.6,36.8c.1,0,.4,0,.4.1-.1.3-.9,2.3-1.2,3.1,0,.1,0,.2,0,.2.1,0,.4-.1.9-.6,0,0,.1,0,.1.1-.4.5-1,1-1.4,1s-.2-.2-.2-.2,0-.1,0-.3l.3-.8h0c-.6.8-1.5,1.4-1.9,1.4s-.4-.2-.4-.5.2-.9.8-1.7c.4-.6.8-.9,1.1-1.1.3-.2.6-.3.8-.3s.2,0,.2,0c0,0,.1,0,.2.2l.2-.6Z"/>
          <path class="cls-1" d="M103.2,37.6c-.3.3-1,1.2-1.2,1.7-.3.6-.3.7-.3.8s0,.2.2.2c.1,0,.6-.2,1.2-.8.7-.7.9-1.2,1-1.7.1-.4,0-.6-.2-.6s-.4.2-.7.4h0ZM105,35.4c.2-.5.2-.6,0-.7h-.2c0-.2,0-.2,0-.3.2,0,.6-.2,1-.2h0c-.2.5-.3.9-.5,1.6-.8,2.4-1.3,3.8-1.3,4.1,0,.1,0,.2,0,.2.1,0,.7-.4.9-.8,0,0,.1,0,.1.1-.2.5-1,1.2-1.5,1.2s-.3-.1-.3-.3,0-.2.1-.5l.3-.9h0c-.6.8-1.2,1.7-2.1,1.7s-.5-.3-.5-.6c0-.6.5-1.7,1.1-2.3.6-.5,1.1-.8,1.5-.8s.3,0,.4.3l.6-1.8h0Z"/>
          <path class="cls-1" d="M106.2,39.8c0,.2,0,.3,0,.3s.5-.3.9-.7c.8-.8,1.2-1.8,1.5-2.3.2,0,.4,0,.4.2,0,.2-.6,1.7-1,2.7,0,.1,0,.2,0,.2.2,0,.6-.4.8-.7,0,0,.1,0,.2.1-.2.4-1,1.1-1.5,1.1s-.3-.2-.2-.3l.6-1.6h0c-.6.8-1.7,1.9-2.1,1.9s-.4-.4-.2-.7l.8-2.1c0-.2,0-.3,0-.3-.2,0-.6.4-.8.6,0,0-.2,0-.1-.1.2-.4,1.1-1,1.5-1s.3.1.3.3l-1,2.6h0Z"/>
          <path class="cls-1" d="M111.2,37.8c-.6.5-1.1,1.6-1.1,2.3s0,.2.1.2.3-.1.8-.6c.7-.6,1-1.4,1.2-1.9,0-.2-.2-.3-.4-.3s-.3,0-.6.3ZM112.7,36.8c.1,0,.4,0,.4.1-.1.3-.9,2.3-1.2,3.1,0,.1,0,.2,0,.2.1,0,.4-.1.9-.6,0,0,.1,0,.1.1-.4.5-1,1-1.4,1s-.2-.2-.2-.2,0-.1,0-.3l.3-.8h0c-.6.8-1.5,1.4-1.9,1.4s-.4-.2-.4-.5.2-.9.8-1.7c.4-.6.8-.9,1.1-1.1.3-.2.6-.3.8-.3s.2,0,.2,0c0,0,.1,0,.2.2l.2-.6Z"/>
          <path class="cls-1" d="M115,37.5l-.8,2.4c0,.2,0,.2,0,.2.1,0,.7-.5,1-.8,0,0,.1,0,.1.2-.5.7-1.3,1.3-1.7,1.3s-.2-.1-.2-.2,0-.2.1-.5l.8-2.5h-.7c0,0,0-.2,0-.2h.7c0-.1.5-1,.5-1,0,0,.3,0,.3,0l-.2.9h.9c0,0,0,.3-.1.3h-.9Z"/>
          <path class="cls-1" d="M117.3,37.7c-.3.4-.5.8-.6,1,.6-.2.8-.3,1.2-.7.3-.3.3-.5.3-.6s0-.2-.2-.2-.3,0-.7.4h0ZM118.7,37.5c0,.7-.8,1.1-2.1,1.5,0,.1-.1.4-.1.8s.2.5.4.5.5-.2.9-.5c0,0,.1,0,.1.1-.5.7-1,.8-1.4.8-.5,0-.7-.5-.7-.9s.3-1.6,1.3-2.4c.4-.4.8-.4,1-.4s.5.3.5.5h0Z"/>
          <path class="cls-1" d="M121.9,37.5c0,.1,0,.2-.2.3,0,0-.1,0-.2,0-.1-.1-.3-.3-.5-.3s-.4.2-.4.4,0,.4.3.8c.2.4.3.6.3,1,0,.2-.1.6-.4.8-.2.2-.5.3-.9.3s-.5-.3-.5-.5,0-.2.1-.3c0,0,.2,0,.2,0,.1.1.4.4.6.4s.4-.2.4-.5-.1-.4-.3-.8c-.2-.4-.3-.7-.3-.8,0-.3.1-.6.5-.9.2-.2.5-.3.6-.3.3,0,.5.3.5.5h0Z"/>
          <path class="cls-1" d="M124.7,37.5c0,.4-.3.4-.4.4s-.2,0-.2-.2c0-.2,0-.5-.3-.5s-.5.2-.7.6c-.3.4-.6,1.1-.6,1.8,0,.4.2.6.4.6s.6-.2.9-.5c0,0,.1,0,.1.1-.3.4-.9.8-1.4.8s-.6-.3-.6-.9.3-1.6,1.1-2.3c.4-.3.7-.5,1.1-.5s.6.2.6.5Z"/>
          <path class="cls-1" d="M126.9,34.3l-.6,1.8-.9,2.6h0c.6-.8,1-1.2,1.4-1.4.3-.2.6-.3.8-.3.4,0,.5.3.5.6,0,.6-.4,1.5-.7,2.1-.2.3-.3.5-.6.7-.3.3-.5.3-.6.3-.3,0-.3-.2-.3-.3,0-.1.1-.3.2-.3s0,0,.1,0c0,0,.2.1.2.1.1,0,.2-.1.3-.4.2-.6.6-1.8.6-2.3s0-.3-.2-.3-.3.1-.5.2c-.4.3-.6.6-1.1,1.2-.4.5-.8,1.4-1,1.8,0,0,0,.1-.2.1s-.3,0-.2-.2l1.6-4.9c.2-.6.2-.7,0-.8h-.2c0-.2,0-.2,0-.2.1,0,.7-.2,1-.2h0Z"/>
          <path class="cls-1" d="M129.8,37.7c-.5.7-.8,1.7-.9,2.2,0,.3.1.6.4.6s.4,0,.7-.5c.4-.5.8-1.7.8-2.1,0-.3,0-.6-.3-.6s-.4,0-.6.4h0ZM131.3,38.1c0,.5-.3,1.3-.9,2-.5.6-1,.6-1.2.6-.6,0-.9-.4-.9-1.2,0-.5.4-1.4.9-2,.4-.4.8-.6,1.2-.6.6,0,.9.5.9,1.1h0Z"/>
          <path class="cls-1" d="M133,37.7c-.5.7-.8,1.7-.9,2.2,0,.3.1.6.4.6s.4,0,.7-.5c.4-.5.8-1.7.8-2.1,0-.3,0-.6-.3-.6s-.4,0-.6.4h0ZM134.5,38.1c0,.5-.3,1.3-.9,2-.5.6-1,.6-1.2.6-.6,0-.9-.4-.9-1.2,0-.5.4-1.4.9-2,.4-.4.8-.6,1.2-.6.6,0,.9.5.9,1.1h0Z"/>
          <path class="cls-1" d="M135.2,40c0,.2,0,.3,0,.3.2,0,.6-.4,1-.9,0,0,.1,0,.1.1-.2.4-.8,1.2-1.5,1.2s-.3-.1-.3-.3,0-.3.2-.7l1.4-4.2c.2-.6.1-.7,0-.8h-.2c0-.1,0-.2,0-.2.2,0,.7-.2,1.1-.3h0c-.1.4-.2.6-.5,1.6l-1.4,4.1h0Z"/>
          <path class="cls-1" d="M139.5,37.7c-.5.7-.8,1.7-.9,2.2,0,.3.1.6.4.6s.4,0,.7-.5c.4-.5.8-1.7.8-2.1,0-.3,0-.6-.3-.6s-.4,0-.6.4h0ZM141.1,38.1c0,.5-.3,1.3-.9,2-.5.6-1,.6-1.2.6-.6,0-.9-.4-.9-1.2,0-.5.4-1.4.9-2,.4-.4.8-.6,1.2-.6.6,0,.9.5.9,1.1h0Z"/>
          <path class="cls-1" d="M142.9,37.4c0,.1-.1.4-.2.8-.3,1-.5,1.8-.8,2.8-.2.8-.5,1.2-.7,1.4-.1.1-.5.5-1,.5s-.6-.3-.6-.4.1-.3.2-.4c0,0,.1,0,.2,0,.2.2.5.4.7.4s.4,0,.6-.7c.4-1.4.7-2.9,1.1-4.3h-.7c0,0,0-.2,0-.3h.7c.2-.8.5-1.5,1-2.1.4-.5.9-.7,1.4-.7s.7.2.7.6-.2.5-.4.5-.1,0-.1-.1c0-.5-.3-.6-.5-.6s-.4.2-.6.5c-.4.6-.6,1.2-.8,2h1.1c0,0,0,.2,0,.3h-1.1Z"/>
          <path class="cls-1" d="M146.8,37.6c-.3.4-.8,1.2-.8,1.6s.1.3.3.3.3,0,.6-.3c.5-.6.8-1.4.8-1.6s-.1-.3-.3-.3-.3,0-.6.4ZM147.5,42c0-.1,0-.3-.4-.5-.4-.2-.7-.4-.8-.4-.2,0-.6.1-.8.3-.2.2-.3.4-.3.6,0,.4.6.7,1.2.7s1.1-.2,1.1-.6h0ZM147.8,37.1c0,0,.2,0,.2,0,0,0,.2,0,.4,0,.2,0,.3,0,.4,0,.1,0,.2,0,.2.2,0,.2-.1.3-.2.3s-.2,0-.3,0c0,0-.3,0-.3,0s0,0,0,0c0,0,0,.2,0,.3,0,.7-.5,1.4-1.1,1.8,0,0-.4.2-.6.2,0,0-.2.2-.2.3s0,.3.3.4c.2.1.5.3.8.5.5.3.6.6.6.9,0,.5-.7,1-2.1,1s-1.4-.2-1.4-.8,1-1.1,1.5-1.2c-.2-.1-.3-.3-.3-.4s.3-.5.4-.7c-.2,0-.6-.2-.6-.8s.3-1.1.7-1.5c.4-.4.8-.5,1.3-.5s.2,0,.3,0h0Z"/>
          <path class="cls-1" d="M149.2,40c0,.2,0,.3,0,.3.2,0,.6-.4,1-.9,0,0,.1,0,.1.1-.2.4-.8,1.2-1.5,1.2s-.3-.1-.3-.3,0-.3.2-.7l1.4-4.2c.2-.6.1-.7,0-.8h-.2c0-.1,0-.2,0-.2.2,0,.7-.2,1.1-.3h0c-.1.4-.2.6-.5,1.6l-1.4,4.1h0Z"/>
          <path class="cls-1" d="M152.1,37.7c-.5.7-.8,1.7-.9,2.2,0,.3.1.6.4.6s.4,0,.7-.5c.4-.5.8-1.7.8-2.1,0-.3,0-.6-.3-.6s-.4,0-.6.4h0ZM153.6,38.1c0,.5-.3,1.3-.9,2-.5.6-1,.6-1.2.6-.6,0-.9-.4-.9-1.2,0-.5.4-1.4.9-2,.4-.4.8-.6,1.2-.6.6,0,.9.5.9,1.1h0Z"/>
          <path class="cls-1" d="M155.2,38.2c-.5.6-.8,1.4-.8,1.8s.2.5.3.5.5-.2.8-.6c.5-.6,1.2-1.7,1.2-2.2s-.1-.3-.3-.3c-.2,0-.7.3-1.2.9h0ZM154.7,38.5h0c.6-.9,1.2-1.5,1.8-1.5s.7.3.7.8-.4,1.4-1.1,2.1c-.7.7-1.3.9-1.6.9-.5,0-.7-.3-.7-.8s.2-1,.4-1.7l1-2.7c.2-.5.2-.6,0-.7h-.2c0-.2,0-.2,0-.3.2,0,.6-.2,1-.2h0c0,0-.4,1.2-.4,1.2l-1.1,3h0Z"/>
          <path class="cls-1" d="M159,37.8c-.6.5-1.1,1.6-1.1,2.3s0,.2.1.2.3-.1.8-.6c.7-.6,1-1.4,1.2-1.9,0-.2-.2-.3-.4-.3s-.3,0-.6.3ZM160.4,36.8c.1,0,.4,0,.4.1-.1.3-.9,2.3-1.2,3.1,0,.1,0,.2,0,.2.1,0,.4-.1.9-.6,0,0,.1,0,.1.1-.4.5-1,1-1.4,1s-.2-.2-.2-.2,0-.1,0-.3l.3-.8h0c-.6.8-1.5,1.4-1.9,1.4s-.4-.2-.4-.5.2-.9.8-1.7c.4-.6.8-.9,1.1-1.1.3-.2.6-.3.8-.3s.2,0,.2,0c0,0,.1,0,.2.2l.2-.6h0Z"/>
          <path class="cls-1" d="M161.8,40c0,.2,0,.3,0,.3.2,0,.6-.4,1-.9,0,0,.1,0,.1.1-.2.4-.8,1.2-1.5,1.2s-.3-.1-.3-.3,0-.3.2-.7l1.4-4.2c.2-.6.1-.7,0-.8h-.2c0-.1,0-.2,0-.2.2,0,.7-.2,1.1-.3h0c-.1.4-.2.6-.5,1.6l-1.4,4.1h0Z"/>
          <path class="cls-1" d="M166.1,37.8c-.6.5-1.1,1.6-1.1,2.3s0,.2.1.2.3-.1.8-.6c.7-.6,1-1.4,1.2-1.9,0-.2-.2-.3-.4-.3s-.3,0-.6.3ZM167.6,36.8c.1,0,.4,0,.4.1-.1.3-.9,2.3-1.2,3.1,0,.1,0,.2,0,.2.1,0,.4-.1.9-.6,0,0,.1,0,.1.1-.4.5-1,1-1.4,1s-.2-.2-.2-.2,0-.1,0-.3l.3-.8h0c-.6.8-1.5,1.4-1.9,1.4s-.4-.2-.4-.5.2-.9.8-1.7c.4-.6.8-.9,1.1-1.1.3-.2.6-.3.8-.3s.2,0,.2,0c0,0,.1,0,.2.2l.2-.6h0Z"/>
          <path class="cls-1" d="M171.4,37.1c.2-.6.4-1.1.7-1.7,0-.4-.3-.7-.6-.7s-.6.2-.9.6c-.2.3-.4.7-.7,1.7h1.5ZM169.8,37.4c0,.1-.1.4-.2.7-.3,1-.5,1.9-.8,2.9-.2.8-.5,1.3-.7,1.4-.1.1-.5.4-1,.4s-.6-.3-.6-.4c0-.2.1-.3.2-.3.1-.1.2,0,.2,0,.1.2.3.3.5.3s.4-.1.5-.7c.4-1.5.7-3,1.1-4.4h-.7c0,0,0-.2,0-.3h.8c.2-.7.4-1.4.9-1.9.4-.5.8-.7,1.4-.7s.8.2.8.6h0c.5-.6,1-.8,1.5-.8s.7.2.7.6-.2.4-.3.5c-.1,0-.2,0-.2-.1,0-.5-.3-.7-.5-.7s-.5.2-.7.5c-.2.3-.5.9-.8,2.1h1.1c0,0,0,.3,0,.3h-1.1c-.3,1.2-.6,2.2-.9,3.3-.3.9-.5,1.3-.7,1.5-.1.1-.5.4-1,.4s-.6-.3-.6-.4c0-.2.1-.3.2-.3.1-.1.2,0,.2,0,.1.2.3.3.5.3s.4-.1.6-.8c.4-1.4.7-3,1.1-4.1h-1.5Z"/>
          <path class="cls-1" d="M174,37.8c-.6.5-1.1,1.6-1.1,2.3s0,.2.1.2.3-.1.8-.6c.7-.6,1-1.4,1.2-1.9,0-.2-.2-.3-.4-.3s-.3,0-.6.3ZM175.5,36.8c.1,0,.4,0,.4.1-.1.3-.9,2.3-1.2,3.1,0,.1,0,.2,0,.2.1,0,.4-.1.9-.6,0,0,.1,0,.1.1-.4.5-1,1-1.4,1s-.2-.2-.2-.2,0-.1,0-.3l.3-.8h0c-.6.8-1.5,1.4-1.9,1.4s-.4-.2-.4-.5.2-.9.8-1.7c.4-.6.8-.9,1.1-1.1.3-.2.6-.3.8-.3s.2,0,.2,0c0,0,.1,0,.2.2l.2-.6Z"/>
          <path class="cls-1" d="M178.3,35.5c0,.3-.2.5-.4.5s-.3-.2-.3-.3.1-.6.5-.6.3.1.3.3ZM177.3,37.7c0,0,0-.2,0-.2s-.3.1-.7.5c0,0-.1,0-.1-.1.5-.6,1.1-.9,1.4-.9s.1,0,.1,0c0,0,0,.1,0,.4l-1,2.5c0,0,0,.2,0,.2.1,0,.6-.3.9-.7,0,0,.1,0,.1.1-.1.3-1,1-1.6,1s0,0-.1,0c0,0,0-.1,0-.2l1.1-2.7h0Z"/>
          <path class="cls-1" d="M179.8,37.8l-.4,1.1h0c.3-.5.7-1.2.9-1.5.2-.3.4-.5.6-.5.3,0,.3.3.3.4s0,.4-.2.5c-.1.1-.2.1-.3,0,0-.2,0-.3-.2-.3s-.2,0-.3.3c-.5.7-1,1.8-1.5,2.8,0,0,0,.1-.1.1s-.3,0-.3-.2c.1-.4.7-1.9.9-2.8,0,0,0-.2,0-.2-.2,0-.5.2-.6.5,0,0-.1,0-.1-.1.3-.5.6-.8,1-.8s.3.6.2.8h0Z"/>
          <path class="cls-1" d="M183.3,37.5c0,.1,0,.2-.2.3,0,0-.1,0-.2,0-.1-.1-.3-.3-.5-.3s-.4.2-.4.4,0,.4.3.8c.2.4.3.6.3,1,0,.2-.1.6-.4.8-.2.2-.5.3-.9.3s-.5-.3-.5-.5,0-.2.1-.3c0,0,.2,0,.2,0,.1.1.4.4.6.4s.4-.2.4-.5-.1-.4-.3-.8c-.2-.4-.3-.7-.3-.8,0-.3.1-.6.5-.9.2-.2.5-.3.6-.3.3,0,.5.3.5.5h0Z"/>
          <path class="cls-1" d="M187.1,37.8c-.6.5-1.1,1.6-1.1,2.3s0,.2.1.2.3-.1.8-.6c.7-.6,1-1.4,1.2-1.9,0-.2-.2-.3-.4-.3s-.3,0-.6.3ZM188.6,36.8c.1,0,.4,0,.4.1-.1.3-.9,2.3-1.2,3.1,0,.1,0,.2,0,.2.1,0,.4-.1.9-.6,0,0,.1,0,.1.1-.4.5-1,1-1.4,1s-.2-.2-.2-.2,0-.1,0-.3l.3-.8h0c-.6.8-1.5,1.4-1.9,1.4s-.4-.2-.4-.5.2-.9.8-1.7c.4-.6.8-.9,1.1-1.1.3-.2.6-.3.8-.3s.2,0,.2,0c0,0,.1,0,.2.2l.2-.6Z"/>
          <path class="cls-1" d="M190.8,37.5l-.8,2.4c0,.2,0,.2,0,.2.1,0,.7-.5,1-.8,0,0,.1,0,.1.2-.5.7-1.3,1.3-1.7,1.3s-.2-.1-.2-.2,0-.2.1-.5l.8-2.5h-.7c0,0,0-.2,0-.2h.7c0-.1.5-1,.5-1,0,0,.3,0,.3,0l-.2.9h.9c0,0,0,.3-.1.3h-.9Z"/>
          <path class="cls-1" d="M197.9,34.8c.4,0,.6,0,.7-.2,0,0,.1,0,.1,0-.2.3-.4,1-.5,1.2,0,0-.2,0-.2,0,0-.7,0-.8-.8-.8h-.5c-.3,0-.3,0-.4.4l-1.2,3.9c-.2.8-.3,1,.2,1h.3c0,0,0,.2,0,.2-.5,0-.8,0-1.1,0s-.6,0-1,0c0,0,0-.2,0-.2h.3c.4,0,.5-.2.8-1.1l1.2-3.9c.1-.4,0-.4-.2-.4h-.6c-.8,0-1,.2-1.4.8,0,0-.2,0-.2,0,.2-.4.5-.9.6-1.2,0,0,.1,0,.2,0,0,.2,0,.2.6.2h3.2,0Z"/>
          <path class="cls-1" d="M197.8,39.8c0,.2,0,.3,0,.3s.5-.3.9-.7c.8-.8,1.2-1.8,1.5-2.3.2,0,.4,0,.4.2,0,.2-.6,1.7-1,2.7,0,.1,0,.2,0,.2.2,0,.6-.4.8-.7,0,0,.1,0,.2.1-.2.4-1,1.1-1.5,1.1s-.3-.2-.2-.3l.6-1.6h0c-.6.8-1.7,1.9-2.1,1.9s-.4-.4-.2-.7l.8-2.1c0-.2,0-.3,0-.3-.2,0-.6.4-.8.6,0,0-.2,0-.1-.1.2-.4,1.1-1,1.5-1s.3.1.3.3l-1,2.6h0Z"/>
          <path class="cls-1" d="M202.6,37.4c0,.1-.1.4-.2.8-.3,1-.5,1.8-.8,2.8-.2.8-.5,1.2-.7,1.4-.1.1-.5.5-1,.5s-.6-.3-.6-.4.1-.3.2-.4c0,0,.1,0,.2,0,.2.2.5.4.7.4s.4,0,.6-.7c.4-1.4.7-2.9,1.1-4.3h-.7c0,0,0-.2,0-.3h.7c.2-.8.5-1.5,1-2.1.4-.5.9-.7,1.4-.7s.7.2.7.6-.2.5-.4.5-.1,0-.1-.1c0-.5-.3-.6-.5-.6s-.4.2-.6.5c-.4.6-.6,1.2-.8,2h1.1c0,0,0,.2,0,.3h-1.1Z"/>
          <path class="cls-1" d="M204.8,37.5l-.8,2.4c0,.2,0,.2,0,.2.1,0,.7-.5,1-.8,0,0,.1,0,.1.2-.5.7-1.3,1.3-1.7,1.3s-.2-.1-.2-.2,0-.2.1-.5l.8-2.5h-.7c0,0,0-.2,0-.2h.7c0-.1.5-1,.5-1,0,0,.3,0,.3,0l-.2.9h.9c0,0,0,.3-.1.3h-.9Z"/>
          <path class="cls-1" d="M207.8,37.5c0,.1,0,.2-.2.3,0,0-.1,0-.2,0-.1-.1-.3-.3-.5-.3s-.4.2-.4.4,0,.4.3.8c.2.4.3.6.3,1,0,.2-.1.6-.4.8-.2.2-.5.3-.9.3s-.5-.3-.5-.5,0-.2.1-.3c0,0,.2,0,.2,0,.1.1.4.4.6.4s.4-.2.4-.5-.1-.4-.3-.8c-.2-.4-.3-.7-.3-.8,0-.3.1-.6.5-.9.2-.2.5-.3.6-.3.3,0,.5.3.5.5h0Z"/>
          <path class="cls-1" d="M209.9,36c.2-.8.3-1-.2-1h-.2c0,0,0-.2,0-.2.4,0,.6,0,1,0s.6,0,1.1,0c0,0,0,.2,0,.2h-.2c-.5.1-.5.2-.8,1.1l-.6,2c-.4,1.3-.3,2.3,1.1,2.3s1.8-1.1,2.1-2.2l.4-1.2c.2-.6.3-1.1.3-1.4,0-.4.1-.6-.3-.6h-.2c0,0,0-.2,0-.2.4,0,.6,0,.9,0s.6,0,.9,0c0,0,0,.2,0,.2h-.2c-.4.1-.5.2-.7.7,0,.2-.2.8-.4,1.3l-.4,1.3c-.2.6-.5,1.4-1,1.8-.4.4-1.1.6-1.6.6-1.6,0-2.2-.9-1.7-2.5l.7-2.2h0Z"/>
          <path class="cls-1" d="M215.3,38.9h0c.6-.9,1.5-1.9,2.1-1.9s.5.2.5.5,0,.4-.1.6c-.2.4-.8,1.9-.8,1.9,0,0,0,.2,0,.2.1,0,.6-.3.8-.6.1,0,.1,0,.1.1-.3.6-1,1-1.5,1s-.2-.1-.2-.2,0-.1.2-.6c.2-.4.5-1.3.7-1.7,0-.2.2-.5.2-.6s0-.2-.1-.2c-.2,0-.7.4-1.2,1-.5.6-.8,1.3-1.3,2.2,0,0,0,.1-.2.1s-.3,0-.2-.2l1-2.8c0-.1,0-.2,0-.2-.2,0-.5.2-.8.4,0,0-.1,0-.1-.1.3-.5.8-.8,1.3-.8s.3.2.2.4l-.6,1.5h0Z"/>
          <path class="cls-1" d="M220.5,35.5c0,.3-.2.5-.4.5s-.3-.2-.3-.3.1-.6.5-.6.3.1.3.3ZM219.5,37.7c0,0,0-.2,0-.2s-.3.1-.7.5c0,0-.1,0-.1-.1.5-.6,1.1-.9,1.4-.9s.1,0,.1,0c0,0,0,.1,0,.4l-1,2.5c0,0,0,.2,0,.2.1,0,.6-.3.9-.7,0,0,.1,0,.1.1-.1.3-1,1-1.6,1s0,0-.1,0c0,0,0-.1,0-.2l1.1-2.7h0Z"/>
          <path class="cls-1" d="M221.7,37.8c0-.2,0-.3,0-.3-.2,0-.5.3-.8.6,0,0-.1,0-.1-.1.3-.4.8-1,1.4-1s.4.3.3.6l-.7,2c0,.1,0,.3,0,.4s0,.3.2.3.6-.2.9-.7c.5-.6.7-1.3.7-1.7s0-.4,0-.6c0-.2.2-.3.3-.3.3,0,.3.3.3.5,0,.6-.6,1.9-1.4,2.5-.7.6-1.1.6-1.3.6s-.4-.3-.4-.5,0-.5.2-.8l.6-1.6h0Z"/>
          <path class="cls-1" d="M225.6,37.7c-.3.4-.5.8-.6,1,.6-.2.8-.3,1.2-.7.3-.3.3-.5.3-.6s0-.2-.2-.2-.3,0-.7.4h0ZM227,37.5c0,.7-.8,1.1-2.1,1.5,0,.1-.1.4-.1.8s.2.5.4.5.5-.2.9-.5c0,0,.1,0,.1.1-.5.7-1,.8-1.4.8-.5,0-.7-.5-.7-.9s.3-1.6,1.3-2.4c.4-.4.8-.4,1-.4s.5.3.5.5h0Z"/>
          <path class="cls-1" d="M228.6,37.8l-.4,1.1h0c.3-.5.7-1.2.9-1.5.2-.3.4-.5.6-.5.3,0,.3.3.3.4s0,.4-.2.5c-.1.1-.2.1-.3,0,0-.2,0-.3-.2-.3s-.2,0-.3.3c-.5.7-1,1.8-1.5,2.8,0,0,0,.1-.1.1s-.3,0-.3-.2c.1-.4.7-1.9.9-2.8,0,0,0-.2,0-.2-.2,0-.5.2-.6.5,0,0-.1,0-.1-.1.3-.5.6-.8,1-.8s.3.6.2.8h0Z"/>
          <path class="cls-1" d="M232.1,37.5c0,.1,0,.2-.2.3,0,0-.1,0-.2,0-.1-.1-.3-.3-.5-.3s-.4.2-.4.4,0,.4.3.8c.2.4.3.6.3,1,0,.2-.1.6-.4.8-.2.2-.5.3-.9.3s-.5-.3-.5-.5,0-.2.1-.3c0,0,.2,0,.2,0,.1.1.4.4.6.4s.4-.2.4-.5-.1-.4-.3-.8c-.2-.4-.3-.7-.3-.8,0-.3.1-.6.5-.9.2-.2.5-.3.6-.3.3,0,.5.3.5.5h0Z"/>
          <path class="cls-1" d="M234.3,35.5c0,.3-.2.5-.4.5s-.3-.2-.3-.3.1-.6.5-.6.3.1.3.3ZM233.3,37.7c0,0,0-.2,0-.2s-.3.1-.7.5c0,0-.1,0-.1-.1.5-.6,1.1-.9,1.4-.9s.1,0,.1,0c0,0,0,.1,0,.4l-1,2.5c0,0,0,.2,0,.2.1,0,.6-.3.9-.7,0,0,.1,0,.1.1-.1.3-1,1-1.6,1s0,0-.1,0c0,0,0-.1,0-.2l1.1-2.7h0Z"/>
          <path class="cls-1" d="M236,37.5l-.8,2.4c0,.2,0,.2,0,.2.1,0,.7-.5,1-.8,0,0,.1,0,.1.2-.5.7-1.3,1.3-1.7,1.3s-.2-.1-.2-.2,0-.2.1-.5l.8-2.5h-.7c0,0,0-.2,0-.2h.7c0-.1.5-1,.5-1,0,0,.3,0,.3,0l-.2.9h.9c0,0,0,.3-.1.3h-.9Z"/>
          <path class="cls-1" d="M238.3,38.5c0,.6,0,1.2-.1,1.9h0c.3-.4.5-1,.7-1.5.2-.5.3-1.4.3-1.6,0-.3.1-.3.2-.3s.2,0,.2,0c0,0,0,0,0,.2,0,.2-.2,1.4-1,2.7-.4.7-.7,1.3-1.4,2.1-.6.7-1.1.9-1.3.9s-.4-.2-.4-.4.2-.4.3-.4.2,0,.2.1c0,0,.1.2.2.2s.3,0,.5-.2c.2-.2.6-.7.8-1.3.1-.4.2-1.3.2-2,0-1-.2-1.3-.3-1.3s-.3.3-.5.7c0,0-.1,0-.2-.1.2-.6.6-1.1,1-1.1s.5.9.5,1.5h0Z"/>
          <path class="cls-1" d="M174.4,14.9v3.4c0,1.4,0,2-.2,2.4-.2.5-.7.8-1.2.8s-1-.3-1.2-.7c-.2-.5-.3-1-.3-2.5V7.5c0-1.3,0-1.7.3-2.1.3-.4.7-.7,1.2-.7,1.1,0,1.4.6,1.4,2.8v2.6h5.4v-3.3c0-4.5-2.2-6.9-6.6-6.9s-3.9.5-5.2,1.6c-1.4,1.2-1.9,2.7-1.9,6v10.7c0,3.2.2,4.2,1.1,5.6,1.1,1.7,3.1,2.6,5.8,2.6,4.4,0,6.8-2.4,6.8-6.9v-4.7h-5.4Z"/>
          <polygon class="cls-1" points="157 26.1 162.4 26.1 162.4 5.5 165.6 5.5 165.6 .4 153.9 .4 153.9 5.5 157 5.5 157 26.1"/>
          <polygon class="cls-1" points="130.3 26.1 141.2 26.1 141.2 21 135.7 21 135.7 .4 130.3 .4 130.3 26.1"/>
          <polygon class="cls-1" points="118.6 26.1 124 26.1 124 14.3 129.5 14.3 129.5 9.4 124 9.4 124 5.3 129.5 5.3 129.5 .4 118.6 .4 118.6 26.1"/>
          <polygon class="cls-1" points="181.2 26.1 186.6 26.1 186.6 14 189.5 14 189.5 26.1 194.9 26.1 194.9 .4 189.5 .4 189.5 9.1 186.6 9.1 186.6 .4 181.2 .4 181.2 26.1"/>
          <path class="cls-1" d="M208.6,26.1h5.4v-11.8c.2,0,.4,0,.5,0,1.4,0,1.9.6,1.9,2.7v9.2h5.4v-9.3c0-2.6-.6-3.8-2.1-4.1,1.9-.5,2.6-1.9,2.6-5.7s-1.7-6.5-5.8-6.5h-7.7v25.7ZM214,9.6v-4.5h1.2c1.3,0,1.8.7,1.8,2.4s-.6,2.1-1.9,2.1h-1.1Z"/>
          <polygon class="cls-1" points="142 26.1 153.1 26.1 153.1 21.1 147.5 21.1 147.5 14.3 152.9 14.3 152.9 9.4 147.5 9.4 147.5 5.4 153.1 5.4 153.1 .4 142 .4 142 26.1"/>
          <polygon class="cls-1" points="196.3 26.1 207.3 26.1 207.3 21.1 201.7 21.1 201.7 14.3 207.1 14.3 207.1 9.4 201.7 9.4 201.7 5.4 207.3 5.4 207.3 .4 196.3 .4 196.3 26.1"/>
          <path class="cls-2" d="M117.3.4v25.7h-9.7V4.3c-.1.2-.2.4-.4.5,0,0,0,0,0,0,0,0,0,0,0,0,0,0,0,0,0,0,0,0,0,0,0,0,0,0,0,0,0,0,0,0,0,0,0,0,0,0,0,0,0,0,0,0,0,0,0,0,0,0,0,0,0,0,0,0,0,0,0,0,0,0,0,0,0,0,0,0,0,0-.1,0,0,0,0,0,0,0,0,0-.1,0-.2,0s-.1,0-.2,0c0,0,0,0,0,0,0,0,0,0-.1,0,0,0,0,0,0,0,0,0,0,0,0,0,0,0,0,0,0,0,0,0,0,0,0,0,0,0,0,0,0,0,0,0,0,0,0,0,0,0,0,0,0,0,0,0,0,0,0,0,0,0,0,0,0,0,0,0,0,0,0,0,0,0,0,0,0,0,0,0,0,0,0,0,0,0-.2-.2-.3-.3,0,0,0,0,0,0,0,0,0,0,0-.1,0,0,0,0,0,0,0,0,0,0,0-.1,0,0,0,0,0,0,0,0,0,0,0-.1,0,0,0,0,0,0,0,0,0,0,0-.1,0,0,0,0,0,0,0,0,0,0,0-.1,0-.2,0-.3,0-.5,0-.6.3-.9.6-1.1,0,0,.1,0,.2-.1,0,0,0,0,.1-.1.1-.1.3-.3.3-.5,0-.2,0-.4-.4-.4-.7,0-1.2.7-1.7,1.5-.4.8-.7,1.9-1,2.8,0,0-.5,1.8-1.1,3.9h3l-.3,1.1h-3c-.6,2-1.2,4.3-1.6,5.8-.5,1.7-1,3.3-1.8,4.9-.7,1.6-2.6,4.9-5.6,4.9h-11.9V.4h9.7v21.9c.1-.2.2-.4.4-.5,0,0,0,0,0,0,0,0,0,0,0,0,0,0,0,0,0,0,0,0,0,0,0,0,0,0,0,0,0,0,0,0,0,0,0,0,0,0,0,0,0,0,0,0,0,0,0,0,0,0,0,0,0,0,0,0,0,0,0,0,0,0,0,0,0,0,0,0,0,0,.1,0,0,0,0,0,0,0,0,0,.1,0,.2,0,.2,0,.3,0,.5,0,.7.2,1.2.9,1.2,1.6s0,.1,0,.2c0,0,0,0,0,0,0,0,0,0,0,0,0,0,0,0,0,0,0,0,0,0,0,0,0,0,0,0,0,0,0,0,0,0,0,0,0,0,0,0,0,0,0,0,0,0,0,0,0,0,0,.1-.1.2h0s0,0,0,0c0,0,0,0,0,0h0s0,0,0,0c0,0,0,0,0,0,0,0-.2.2-.3.2-.1,0-.3.2-.4.2,0,0-.2,0-.3,0,0,0-.1.1-.1.2,0,.2.2.4.5.4.6,0,1.1-.3,1.2-.6.8-1,1.1-3,1.9-6.9.6-2.5,1.3-5.3,2-7.5h-2.3l.3-1.1h2.3c.5-1.6.4-1.7.8-2.7.7-1.8,1.2-2.8,2.6-4.3.2-.2.4-.4.7-.6.2-.2.4-.3.7-.5.2-.1.4-.3.7-.4.2-.1.4-.2.6-.3.2,0,.4-.1.6-.2.2,0,.4,0,.6,0,.4,0,.8,0,1.2,0h11.2Z"/>
        </g>
      </g>
    </g>
  </g>
</svg>