<?xml version="1.0" encoding="utf-8"?>
<!-- Generator: Adobe Illustrator 28.1.0, SVG Export Plug-In . SVG Version: 6.00 Build 0)  -->
<svg version="1.1" xmlns="http://www.w3.org/2000/svg" xmlns:xlink="http://www.w3.org/1999/xlink" x="0px" y="0px"
	 viewBox="0 0 100 100" style="enable-background:new 0 0 100 100;" xml:space="preserve">
<style type="text/css">
	.st0{fill:none;stroke:#E88433;stroke-width:2.25;stroke-linecap:round;stroke-linejoin:round;stroke-miterlimit:10;}
	.st1{fill:none;stroke:#3DBBA4;stroke-width:2.205;stroke-linecap:round;stroke-linejoin:round;stroke-miterlimit:10;}
	.st2{fill:none;stroke:#AB43A1;stroke-width:2.025;stroke-linejoin:round;stroke-miterlimit:10;}
	.st3{fill:none;stroke:#B67BB0;stroke-width:2.25;stroke-linecap:round;stroke-linejoin:round;stroke-miterlimit:10;}
	.st4{fill:none;stroke:#3DBBA4;stroke-width:2.25;stroke-linejoin:round;stroke-miterlimit:10;}
	.st5{fill:none;stroke:#3DBBA4;stroke-width:2.25;stroke-linecap:round;stroke-linejoin:round;stroke-miterlimit:10;}
	.st6{fill:none;stroke:#4A596D;stroke-width:2.25;stroke-linecap:round;stroke-linejoin:round;stroke-miterlimit:10;}
	.st7{fill:none;stroke:#4A596D;stroke-width:2.25;stroke-linejoin:round;stroke-miterlimit:10;}
	.st8{fill:none;stroke:#A68446;stroke-width:2.25;stroke-linejoin:round;stroke-miterlimit:10;}
	.st9{fill:none;stroke:#E88433;stroke-width:2.25;stroke-linejoin:round;stroke-miterlimit:10;}
	.st10{fill:none;stroke:#A68446;stroke-width:2.25;stroke-linecap:round;stroke-linejoin:round;stroke-miterlimit:10;}
	.st11{fill:none;stroke:#A68446;stroke-width:2.1422;stroke-linecap:round;stroke-linejoin:round;stroke-miterlimit:10;}
	.st12{fill:none;stroke:#A68446;stroke-width:2.7;stroke-linecap:round;stroke-linejoin:round;}
	.st13{fill:none;stroke:#A68446;stroke-width:2.7;stroke-linecap:round;stroke-linejoin:round;stroke-dasharray:0,4.6616,0,0,0,0;}
	.st14{fill:none;stroke:#A68446;stroke-width:3;stroke-linecap:round;stroke-linejoin:round;}
	.st15{fill:none;stroke:#A68446;stroke-width:3;stroke-linecap:round;stroke-linejoin:round;stroke-dasharray:0,5.1796,0,0,0,0;}
	.st16{fill:none;stroke:#3DBBA4;stroke-width:2.2259;stroke-linecap:round;stroke-linejoin:round;stroke-miterlimit:10;}
	.st17{fill:none;stroke:#A68446;stroke-width:2.5;stroke-linejoin:round;stroke-miterlimit:10;}
	.st18{fill:none;stroke:#3DBBA4;stroke-width:2.7;stroke-linecap:round;stroke-linejoin:round;}
	.st19{fill:none;stroke:#3DBBA4;stroke-width:2.7;stroke-linecap:round;stroke-linejoin:round;stroke-dasharray:0,5.5356,0,0,0,0;}
	.st20{fill:#3DBBA4;}
	.st21{fill-rule:evenodd;clip-rule:evenodd;fill:none;stroke:#AB43A1;stroke-width:2.25;stroke-miterlimit:10;}
	
		.st22{fill-rule:evenodd;clip-rule:evenodd;fill:none;stroke:#AB43A1;stroke-width:2.25;stroke-linejoin:round;stroke-miterlimit:10;}
</style>
<g id="Layer_1">
	<path class="st5" d="M80.3,90.9c-4.5,0-8.2-4.2-8.2-9.4c0-2.7,2.3-6.2,4.6-9.5c0.8-1.1,1.5-2.4,2.3-3.9l1.2-2.3l1.2,2.3
		c0.8,1.5,1.6,2.8,2.3,3.8c2.4,3.4,4.7,6.8,4.7,9.6C88.5,86.7,84.8,90.9,80.3,90.9z"/>
	<g>
		<path class="st4" d="M50,77.1c-8.1,0-14.6-12.4-14.6-27.6S41.9,21.8,50,21.8"/>
		<line class="st4" x1="23.8" y1="39.3" x2="50" y2="39.3"/>
		<line class="st4" x1="25.2" y1="61.1" x2="50" y2="61.1"/>
		<path class="st4" d="M50,49.5v27.6c-15.3,0-27.6-12.4-27.6-27.6S34.7,21.8,50,21.8V49.5"/>
	</g>
	<path class="st4" d="M59.2,39.8l-0.3,0.1c-1,0.1-1.9,0.4-2.8,0.9L56,40.9L55.9,41c-0.7,0.7-1.3,1.6-1.6,2.5
		c-0.1,0.4-0.2,0.8-0.3,1.2c0,0.1,0,0.2-0.1,0.4c0,0.1,0,0.1,0,0.1c-0.1,0.4-0.2,0.9-0.1,1.3l0,0.1c0.2,0.9,0.6,1.7,1,2.4
		c0.4,0.8,1,1.6,1.7,1.9l0.1,0l0.1,0c0.3,0.1,0.6,0.1,0.9,0.1c0.4,0,0.7,0,1.1-0.1l0.1,0c0.3,0,0.5-0.1,0.8-0.1
		c0.4,0,0.5,0.1,0.6,0.1c0.3,0.3,0.4,0.7,0.5,1.2l0,0.1c0,0.4,0.1,0.9,0.3,1.3c0.1,0.2,0.2,0.5,0.4,0.9l0,0.1c0.1,0.3,0.3,0.6,0.5,1
		c0.4,0.8,0.6,1.7,0.5,2.5c-0.1,0.4-0.2,0.9-0.4,1.2c-0.2,0.5-0.4,1.1-0.5,1.6l0,0.1l0,0.1c0,1,0.3,2,0.7,2.9l0.2,0.4
		c0.5,1.4,0.8,2.1,1.5,2.4c0.2,0.1,0.4,0.1,0.6,0.1c0.6,0,1.4-0.3,2.2-1.1l0-0.1l0-0.1c0.8-1.1,1.4-2.3,1.7-3.5l0.4-1.1
		c0.5-1.2,0.9-2.5,1.3-3.8c0.1-0.6,0.2-1.3,0.2-1.9c0-0.6,0.1-1.1,0.2-1.6c0.2-0.9,0.5-1.7,0.9-2.5l0-0.1c0.1-0.2,0.2-0.4,0.3-0.6
		c0.3-0.5,0.4-1.1,0.5-1.7l0-0.2l-0.1-0.2c0,0-0.1-0.2-0.1-0.3l0-0.1c-0.1-0.2-0.1-0.5,0-0.7"/>
	<circle class="st4" cx="72.1" cy="30.4" r="16.2"/>
	<path class="st5" d="M34.4,12.5c4.8-2,10.1-3.2,15.6-3.2c4.1,0,8.2,0.6,11.9,1.8"/>
	<g>
		<g>
			<line class="st18" x1="65.2" y1="85.3" x2="65.2" y2="85.3"/>
			<path class="st19" d="M60,87c-3.8,1-7.9,1.5-12,1.2c-21.4-1.2-37.9-19.5-36.7-40.9c0.2-3.4,0.8-6.6,1.8-9.7"/>
			<line class="st18" x1="13" y1="37.7" x2="13" y2="37.7"/>
		</g>
	</g>
	<path class="st5" d="M89.4,42c0.5,2.4,0.7,4.9,0.7,7.4c0,5.3-1,10.3-2.9,14.9"/>
	<g>
		<path class="st5" d="M67.9,39.8c6.8-4.4,6.1-9.2,3.9-13.1c-1.3-2.3-3-4.1-4.5-5.8c-1.4,1.7-3.1,3.5-4.5,5.8
			c-2.2,3.9-2.9,8.7,3.9,13.1h0c0,0,0.3,0.2,0.6,0.2C67.5,40,67.9,39.8,67.9,39.8z"/>
		<line class="st5" x1="67.3" y1="40" x2="67.3" y2="29"/>
		<line class="st5" x1="73.3" y1="30.8" x2="77.4" y2="27.8"/>
		<path class="st5" d="M71.8,36.3c5.1,0.7,7.7-2.2,9.2-5.6c1.1-2.4,1.5-4.9,2-7c-2.2-0.2-4.7-0.5-7.3-0.2c-1.7,0.2-3.5,0.7-4.9,1.6"
			/>
	</g>
	<g>
		<path class="st4" d="M77.6,45.7c0.2,1.2,0.2,2.5,0.2,3.7c0,15.3-12.4,27.6-27.6,27.6"/>
		<path class="st4" d="M50.2,21.8c2.6,0,5.1,0.4,7.5,1"/>
	</g>
	<g>
		<line class="st5" x1="18.7" y1="10.2" x2="18.7" y2="7.6"/>
		<line class="st5" x1="18.7" y1="30.9" x2="18.7" y2="28.3"/>
		<line class="st5" x1="9.6" y1="19.2" x2="7" y2="19.2"/>
		<line class="st5" x1="30.4" y1="19.2" x2="27.7" y2="19.2"/>
		<line class="st5" x1="12.3" y1="12.9" x2="10.4" y2="11"/>
		<line class="st5" x1="26.9" y1="27.5" x2="25" y2="25.6"/>
		<line class="st5" x1="12.3" y1="25.6" x2="10.4" y2="27.5"/>
		<line class="st5" x1="26.9" y1="11" x2="25" y2="12.9"/>
		<g>
		</g>
		<g>
			<path class="st20" d="M18.7,15.2c2.2,0,4,1.8,4,4s-1.8,4-4,4s-4-1.8-4-4S16.4,15.2,18.7,15.2 M18.7,13c-3.5,0-6.3,2.8-6.3,6.3
				c0,3.5,2.8,6.3,6.3,6.3c3.5,0,6.3-2.8,6.3-6.3C24.9,15.8,22.1,13,18.7,13L18.7,13z"/>
		</g>
	</g>
</g>
<g id="Layer_2">
</g>
<g id="Layer_3">
</g>
</svg>
