<?xml version="1.0" encoding="utf-8"?>
<!-- Generator: Adobe Illustrator 28.1.0, SVG Export Plug-In . SVG Version: 6.00 Build 0)  -->
<svg version="1.1" xmlns="http://www.w3.org/2000/svg" xmlns:xlink="http://www.w3.org/1999/xlink" x="0px" y="0px"
	 viewBox="0 0 100 100" style="enable-background:new 0 0 100 100;" xml:space="preserve">
<style type="text/css">
	.st0{fill:none;stroke:#E88433;stroke-width:2.25;stroke-linecap:round;stroke-linejoin:round;stroke-miterlimit:10;}
	.st1{fill:none;stroke:#3DBBA4;stroke-width:2.205;stroke-linecap:round;stroke-linejoin:round;stroke-miterlimit:10;}
	.st2{fill:none;stroke:#AB43A1;stroke-width:2.025;stroke-linejoin:round;stroke-miterlimit:10;}
	.st3{fill:none;stroke:#B67BB0;stroke-width:2.25;stroke-linecap:round;stroke-linejoin:round;stroke-miterlimit:10;}
	.st4{fill:none;stroke:#3DBBA4;stroke-width:2.25;stroke-linejoin:round;stroke-miterlimit:10;}
	.st5{fill:none;stroke:#3DBBA4;stroke-width:2.25;stroke-linecap:round;stroke-linejoin:round;stroke-miterlimit:10;}
	.st6{fill:none;stroke:#4A596D;stroke-width:2.25;stroke-linecap:round;stroke-linejoin:round;stroke-miterlimit:10;}
	.st7{fill:none;stroke:#4A596D;stroke-width:2.25;stroke-linejoin:round;stroke-miterlimit:10;}
	.st8{fill:none;stroke:#A68446;stroke-width:2.25;stroke-linejoin:round;stroke-miterlimit:10;}
	.st9{fill:none;stroke:#E88433;stroke-width:2.25;stroke-linejoin:round;stroke-miterlimit:10;}
	.st10{fill:none;stroke:#A68446;stroke-width:2.25;stroke-linecap:round;stroke-linejoin:round;stroke-miterlimit:10;}
	.st11{fill:none;stroke:#A68446;stroke-width:2.1422;stroke-linecap:round;stroke-linejoin:round;stroke-miterlimit:10;}
	.st12{fill:none;stroke:#A68446;stroke-width:2.7;stroke-linecap:round;stroke-linejoin:round;}
	.st13{fill:none;stroke:#A68446;stroke-width:2.7;stroke-linecap:round;stroke-linejoin:round;stroke-dasharray:0,4.6616,0,0,0,0;}
	.st14{fill:none;stroke:#A68446;stroke-width:3;stroke-linecap:round;stroke-linejoin:round;}
	.st15{fill:none;stroke:#A68446;stroke-width:3;stroke-linecap:round;stroke-linejoin:round;stroke-dasharray:0,5.1796,0,0,0,0;}
	.st16{fill:none;stroke:#3DBBA4;stroke-width:2.2259;stroke-linecap:round;stroke-linejoin:round;stroke-miterlimit:10;}
	.st17{fill:none;stroke:#A68446;stroke-width:2.5;stroke-linejoin:round;stroke-miterlimit:10;}
	.st18{fill:none;stroke:#3DBBA4;stroke-width:2.7;stroke-linecap:round;stroke-linejoin:round;}
	.st19{fill:none;stroke:#3DBBA4;stroke-width:2.7;stroke-linecap:round;stroke-linejoin:round;stroke-dasharray:0,5.5356,0,0,0,0;}
	.st20{fill:#3DBBA4;}
	.st21{fill-rule:evenodd;clip-rule:evenodd;fill:none;stroke:#AB43A1;stroke-width:2.25;stroke-miterlimit:10;}
	
		.st22{fill-rule:evenodd;clip-rule:evenodd;fill:none;stroke:#AB43A1;stroke-width:2.25;stroke-linejoin:round;stroke-miterlimit:10;}
</style>
<g id="Layer_1">
	<path class="st6" d="M70.3,7.7l7.1-1.5l0.4,0.5c6.5,7.1,8.6,17.2,5.4,26.3L83,33.6L75.9,35L70.3,7.7z"/>
	<path class="st6" d="M71.5,80.3c-1.6,0-2.8-1.3-2.8-2.8v-0.7c0-1.6,1.3-2.8,2.8-2.8h16.1c1.6,0,2.8,1.3,2.8,2.8v0.7
		c0,1.6-1.3,2.8-2.8,2.8H71.5z"/>
	<rect x="72.4" y="80.3" class="st6" width="14.5" height="7"/>
	<rect x="15.8" y="28.8" transform="matrix(0.9773 -0.212 0.212 0.9773 -6.3995 4.8716)" class="st6" width="7.5" height="6.9"/>
	<rect x="13.1" y="77" class="st6" width="14.4" height="10.4"/>
	<rect x="6.2" y="87.4" class="st6" width="87.6" height="5.6"/>
	
		<rect x="40.7" y="19.7" transform="matrix(-1.836970e-16 1 -1 -1.836970e-16 73.0177 -20.7203)" class="st6" width="12.2" height="13"/>
	<line class="st7" x1="20.3" y1="35.8" x2="20.3" y2="77"/>
	<line class="st7" x1="79.6" y1="34.3" x2="79.6" y2="73.9"/>
	<line class="st7" x1="53.4" y1="25.3" x2="73.6" y2="21.1"/>
	<line class="st7" x1="23.2" y1="31.6" x2="40.4" y2="28"/>
	<line class="st7" x1="41.8" y1="32.3" x2="33.8" y2="87.4"/>
	<line class="st7" x1="51.7" y1="32.3" x2="59.8" y2="87.4"/>
	<g>
		<line class="st7" x1="36.5" y1="68.8" x2="59.8" y2="87.4"/>
		<line class="st7" x1="57" y1="68.8" x2="33.8" y2="87.4"/>
	</g>
	<g>
		<line class="st7" x1="39" y1="50.1" x2="56.6" y2="64.2"/>
		<line class="st7" x1="54.5" y1="50.1" x2="36.9" y2="64.2"/>
	</g>
	<g>
		<line class="st7" x1="41.2" y1="36.4" x2="53.5" y2="45.4"/>
		<line class="st7" x1="52.3" y1="36.4" x2="39.9" y2="45.5"/>
	</g>
	<path class="st6" d="M66.2,56c-3.7,0-6.6-3.4-6.6-7.6c0-2.2,1.9-5,3.8-7.7c0.6-0.9,1.2-1.9,1.9-3.1l1-1.8l1,1.8
		c0.6,1.2,1.3,2.3,1.9,3.1c1.9,2.7,3.8,5.5,3.8,7.7C72.9,52.6,69.9,56,66.2,56z"/>
</g>
<g id="Layer_2">
</g>
<g id="Layer_3">
</g>
</svg>
