<?xml version="1.0" encoding="utf-8"?>
<!-- Generator: Adobe Illustrator 28.1.0, SVG Export Plug-In . SVG Version: 6.00 Build 0)  -->
<svg version="1.1" xmlns="http://www.w3.org/2000/svg" xmlns:xlink="http://www.w3.org/1999/xlink" x="0px" y="0px"
	 viewBox="0 0 100 100" style="enable-background:new 0 0 100 100;" xml:space="preserve">
<style type="text/css">
	.st0{fill:none;stroke:#E88433;stroke-width:2.25;stroke-linecap:round;stroke-linejoin:round;stroke-miterlimit:10;}
	.st1{fill:none;stroke:#3DBBA4;stroke-width:2.205;stroke-linecap:round;stroke-linejoin:round;stroke-miterlimit:10;}
	.st2{fill:none;stroke:#AB43A1;stroke-width:2.025;stroke-linejoin:round;stroke-miterlimit:10;}
	.st3{fill:none;stroke:#B67BB0;stroke-width:2.25;stroke-linecap:round;stroke-linejoin:round;stroke-miterlimit:10;}
	.st4{fill:none;stroke:#3DBBA4;stroke-width:2.25;stroke-linejoin:round;stroke-miterlimit:10;}
	.st5{fill:none;stroke:#3DBBA4;stroke-width:2.25;stroke-linecap:round;stroke-linejoin:round;stroke-miterlimit:10;}
	.st6{fill:none;stroke:#4A596D;stroke-width:2.25;stroke-linecap:round;stroke-linejoin:round;stroke-miterlimit:10;}
	.st7{fill:none;stroke:#4A596D;stroke-width:2.25;stroke-linejoin:round;stroke-miterlimit:10;}
	.st8{fill:none;stroke:#A68446;stroke-width:2.25;stroke-linejoin:round;stroke-miterlimit:10;}
	.st9{fill:none;stroke:#E88433;stroke-width:2.25;stroke-linejoin:round;stroke-miterlimit:10;}
	.st10{fill:none;stroke:#A68446;stroke-width:2.25;stroke-linecap:round;stroke-linejoin:round;stroke-miterlimit:10;}
	.st11{fill:none;stroke:#A68446;stroke-width:2.1422;stroke-linecap:round;stroke-linejoin:round;stroke-miterlimit:10;}
	.st12{fill:none;stroke:#A68446;stroke-width:2.7;stroke-linecap:round;stroke-linejoin:round;}
	.st13{fill:none;stroke:#A68446;stroke-width:2.7;stroke-linecap:round;stroke-linejoin:round;stroke-dasharray:0,4.6616,0,0,0,0;}
	.st14{fill:none;stroke:#A68446;stroke-width:3;stroke-linecap:round;stroke-linejoin:round;}
	.st15{fill:none;stroke:#A68446;stroke-width:3;stroke-linecap:round;stroke-linejoin:round;stroke-dasharray:0,5.1796,0,0,0,0;}
	.st16{fill:none;stroke:#3DBBA4;stroke-width:2.2259;stroke-linecap:round;stroke-linejoin:round;stroke-miterlimit:10;}
	.st17{fill:none;stroke:#A68446;stroke-width:2.5;stroke-linejoin:round;stroke-miterlimit:10;}
	.st18{fill:none;stroke:#3DBBA4;stroke-width:2.7;stroke-linecap:round;stroke-linejoin:round;}
	.st19{fill:none;stroke:#3DBBA4;stroke-width:2.7;stroke-linecap:round;stroke-linejoin:round;stroke-dasharray:0,5.5356,0,0,0,0;}
	.st20{fill:#3DBBA4;}
	.st21{fill-rule:evenodd;clip-rule:evenodd;fill:none;stroke:#AB43A1;stroke-width:2.25;stroke-miterlimit:10;}
	
		.st22{fill-rule:evenodd;clip-rule:evenodd;fill:none;stroke:#AB43A1;stroke-width:2.25;stroke-linejoin:round;stroke-miterlimit:10;}
</style>
<g id="Layer_1">
	<g>
		<g>
			<path class="st2" d="M8.8,23c-1.3,0-2.3,1-2.3,2.3v7.1c0,1.3,1,2.3,2.3,2.3h0.6L10,46.8h5.2l0.6-12.1h0.6c1.3,0,2.3-1,2.3-2.3
				v-7.1c0-1.3-1-2.3-2.3-2.3H8.8z"/>
			<circle class="st2" cx="12.7" cy="16.3" r="3.3"/>
		</g>
		<g>
			<path class="st2" d="M27.5,23c-1.3,0-2.3,1-2.3,2.3v7.1c0,1.3,1,2.3,2.3,2.3h0.6l0.6,12.1H34l0.6-12.1h0.6c1.3,0,2.3-1,2.3-2.3
				v-7.1c0-1.3-1-2.3-2.3-2.3H27.5z"/>
			<circle class="st2" cx="31.4" cy="16.3" r="3.3"/>
		</g>
		<g>
			<path class="st2" d="M46.2,23c-1.3,0-2.3,1-2.3,2.3v7.1c0,1.3,1,2.3,2.3,2.3h0.6l0.6,12.1h5.2l0.6-12.1h0.6c1.3,0,2.3-1,2.3-2.3
				v-7.1c0-1.3-1-2.3-2.3-2.3H46.2z"/>
			<circle class="st2" cx="50" cy="16.3" r="3.3"/>
		</g>
		<g>
			<path class="st2" d="M64.8,23c-1.3,0-2.3,1-2.3,2.3v7.1c0,1.3,1,2.3,2.3,2.3h0.6L66,46.8h5.2l0.6-12.1h0.6c1.3,0,2.3-1,2.3-2.3
				v-7.1c0-1.3-1-2.3-2.3-2.3H64.8z"/>
			<circle class="st2" cx="68.7" cy="16.3" r="3.3"/>
		</g>
		<g>
			<path class="st2" d="M8.8,63.2c-1.3,0-2.3,1-2.3,2.3v7.1c0,1.3,1,2.3,2.3,2.3h0.6L10,87h5.2l0.6-12.1h0.6c1.3,0,2.3-1,2.3-2.3
				v-7.1c0-1.3-1-2.3-2.3-2.3H8.8z"/>
			<circle class="st2" cx="12.7" cy="56.5" r="3.3"/>
		</g>
		<g>
			<path class="st2" d="M27.5,63.2c-1.3,0-2.3,1-2.3,2.3v7.1c0,1.3,1,2.3,2.3,2.3h0.6L28.7,87H34l0.6-12.1h0.6c1.3,0,2.3-1,2.3-2.3
				v-7.1c0-1.3-1-2.3-2.3-2.3H27.5z"/>
			<circle class="st2" cx="31.4" cy="56.5" r="3.3"/>
		</g>
		<g>
			<path class="st2" d="M46.2,63.2c-1.3,0-2.3,1-2.3,2.3v7.1c0,1.3,1,2.3,2.3,2.3h0.6L47.4,87h5.2l0.6-12.1h0.6c1.3,0,2.3-1,2.3-2.3
				v-7.1c0-1.3-1-2.3-2.3-2.3H46.2z"/>
			<circle class="st2" cx="50" cy="56.5" r="3.3"/>
		</g>
		<g>
			<path class="st2" d="M64.8,63.2c-1.3,0-2.3,1-2.3,2.3v7.1c0,1.3,1,2.3,2.3,2.3h0.6L66,87h5.2l0.6-12.1h0.6c1.3,0,2.3-1,2.3-2.3
				v-7.1c0-1.3-1-2.3-2.3-2.3H64.8z"/>
			<circle class="st2" cx="68.7" cy="56.5" r="3.3"/>
		</g>
		<g>
			<path class="st2" d="M83.5,23c-1.3,0-2.3,1-2.3,2.3v7.1c0,1.3,1,2.3,2.3,2.3h0.6l0.6,12.1H90l0.6-12.1h0.6c1.3,0,2.3-1,2.3-2.3
				v-7.1c0-1.3-1-2.3-2.3-2.3H83.5z"/>
			<circle class="st2" cx="87.4" cy="16.3" r="3.3"/>
		</g>
		<g>
			<path class="st2" d="M83.5,63.2c-1.3,0-2.3,1-2.3,2.3v7.1c0,1.3,1,2.3,2.3,2.3h0.6L84.7,87H90l0.6-12.1h0.6c1.3,0,2.3-1,2.3-2.3
				v-7.1c0-1.3-1-2.3-2.3-2.3H83.5z"/>
			<circle class="st2" cx="87.4" cy="56.5" r="3.3"/>
		</g>
	</g>
</g>
<g id="Layer_2">
</g>
<g id="Layer_3">
</g>
</svg>
